<?xml version="1.0" encoding="utf-8"?>
<!-- Generator: Adobe Illustrator 27.5.0, SVG Export Plug-In . SVG Version: 6.00 Build 0)  -->
<svg version="1.1" xmlns="http://www.w3.org/2000/svg" xmlns:xlink="http://www.w3.org/1999/xlink" x="0px" y="0px"
	 viewBox="0 0 750 500" style="enable-background:new 0 0 750 500;" xml:space="preserve">
<g id="Background_Complete">
	<g>
		<g>
			<g>
				<path style="fill:#EBEBEB;" d="M637.244,89.059c1.722-1.041,3.555-1.83,5.446-2.367l1.122-5.391l9.108-0.16l1.311,5.347
					c1.909,0.47,3.769,1.194,5.526,2.174l4.603-3.017l6.553,6.327l-2.853,4.705c1.041,1.723,1.83,3.557,2.367,5.447l5.39,1.122
					l0.16,9.108l-5.348,1.311c-0.47,1.908-1.194,3.768-2.174,5.526l3.017,4.603l-6.327,6.553l-4.706-2.854
					c-1.723,1.041-3.556,1.83-5.447,2.367l-1.122,5.391l-9.108,0.16l-1.311-5.348c-1.908-0.47-3.768-1.195-5.526-2.174l-4.603,3.017
					l-6.553-6.327l2.853-4.706c-1.041-1.722-1.83-3.556-2.367-5.447l-5.39-1.122l-0.16-9.108l5.348-1.311
					c0.47-1.908,1.195-3.768,2.174-5.526l-3.017-4.603l6.327-6.553L637.244,89.059L637.244,89.059z M642.099,101.192
					c-3.749,3.883-3.64,10.069,0.243,13.818c3.882,3.748,10.069,3.639,13.817-0.243c3.748-3.883,3.64-10.069-0.243-13.817
					C652.034,97.2,645.848,97.309,642.099,101.192z"/>
			</g>
		</g>
	</g>
	<g>
		<g>
			<g>
				<path style="fill:#F5F5F5;" d="M339.346,110.722c1.389-0.839,2.867-1.475,4.391-1.908l0.905-4.347l7.344-0.129l1.057,4.312
					c1.539,0.379,3.039,0.963,4.456,1.753l3.712-2.433l5.284,5.102l-2.301,3.794c0.84,1.389,1.476,2.868,1.908,4.392l4.346,0.905
					l0.129,7.344l-4.312,1.057c-0.379,1.539-0.963,3.038-1.753,4.455l2.432,3.712l-5.101,5.284l-3.794-2.301
					c-1.389,0.839-2.867,1.475-4.392,1.908l-0.905,4.347l-7.344,0.129l-1.057-4.312c-1.539-0.379-3.038-0.963-4.456-1.753
					l-3.712,2.433l-5.284-5.102l2.301-3.794c-0.839-1.389-1.476-2.867-1.909-4.392l-4.346-0.905l-0.129-7.344l4.312-1.057
					c0.379-1.539,0.964-3.038,1.753-4.455l-2.433-3.712l5.101-5.284L339.346,110.722L339.346,110.722z M343.261,120.505
					c-3.023,3.131-2.935,8.119,0.196,11.141c3.13,3.023,8.119,2.935,11.141-0.196c3.022-3.131,2.935-8.119-0.196-11.141
					C351.272,117.286,346.284,117.374,343.261,120.505z"/>
			</g>
		</g>
		<g>
			<g>
				<g>
					<path style="fill:#F5F5F5;" d="M343.261,120.505c0,0,0.412-0.581,1.467-1.287c1.036-0.69,2.845-1.458,5.14-1.215
						c1.13,0.127,2.366,0.495,3.494,1.241c1.115,0.745,2.168,1.806,2.825,3.183c0.346,0.676,0.586,1.427,0.717,2.212
						c0.142,0.783,0.162,1.606,0.044,2.426c-0.199,1.646-0.978,3.268-2.187,4.543c-1.231,1.254-2.825,2.09-4.464,2.347
						c-0.815,0.147-1.639,0.155-2.426,0.041c-0.789-0.103-1.548-0.316-2.236-0.639c-1.399-0.609-2.497-1.624-3.281-2.712
						c-0.785-1.1-1.196-2.323-1.363-3.448c-0.323-2.285,0.381-4.121,1.034-5.18C342.695,120.937,343.261,120.505,343.261,120.505
						c0.043,0.036-0.476,0.517-1.083,1.599c-0.593,1.063-1.221,2.856-0.871,5.044c0.18,1.077,0.591,2.24,1.353,3.279
						c0.761,1.028,1.814,1.983,3.145,2.549c0.654,0.301,1.375,0.499,2.122,0.591c0.746,0.104,1.526,0.092,2.295-0.05
						c1.549-0.249,3.049-1.04,4.213-2.225c1.142-1.205,1.88-2.732,2.074-4.288c0.115-0.774,0.099-1.554-0.031-2.295
						c-0.119-0.743-0.341-1.457-0.665-2.1c-0.612-1.31-1.604-2.329-2.658-3.053c-1.065-0.724-2.242-1.094-3.325-1.237
						c-2.199-0.273-3.969,0.417-5.01,1.048C343.761,120.011,343.299,120.546,343.261,120.505z"/>
				</g>
			</g>
		</g>
		<g>
			<g>
				<g>
					<path style="fill:#F5F5F5;" d="M339.346,110.721c0,0.007-0.082-0.037-0.245-0.129c-0.179-0.103-0.418-0.241-0.728-0.421
						c-0.664-0.392-1.619-0.956-2.86-1.689l0.089-0.012c-1.298,1.36-3.006,3.15-5.071,5.314l0.014-0.142
						c0.741,1.122,1.566,2.368,2.448,3.702l0.044,0.066l-0.039,0.071c-0.721,1.306-1.327,2.794-1.725,4.426l-0.021,0.087
						l-0.088,0.022c-1.343,0.334-2.797,0.694-4.309,1.07l0.122-0.159c0.046,2.312,0.095,4.766,0.146,7.343l-0.141-0.171
						c1.346,0.277,2.828,0.583,4.348,0.896l0.111,0.023l0.031,0.109c0.404,1.417,1.034,2.925,1.896,4.342l0.061,0.101l-0.061,0.102
						c-0.711,1.177-1.496,2.475-2.295,3.797l-0.032-0.249c1.661,1.6,3.453,3.326,5.29,5.095l-0.261-0.025
						c1.155-0.759,2.424-1.592,3.709-2.436l0.109-0.071l0.114,0.063c1.295,0.722,2.809,1.339,4.403,1.729l0.128,0.031l0.032,0.129
						c0.332,1.35,0.694,2.823,1.06,4.311l-0.219-0.169c2.325-0.042,4.817-0.087,7.344-0.132l-0.215,0.179
						c0.285-1.373,0.593-2.854,0.904-4.346l0.028-0.134l0.131-0.037c1.446-0.409,2.944-1.041,4.333-1.882l0.004-0.002l0.118-0.07
						l0.116,0.07c1.274,0.773,2.54,1.54,3.794,2.301l-0.279,0.036c1.724-1.785,3.426-3.547,5.103-5.283l-0.026,0.278
						c-0.818-1.25-1.629-2.488-2.431-3.713l-0.074-0.113l0.065-0.117c0.78-1.397,1.36-2.884,1.734-4.4l0.032-0.129l0.129-0.031
						c1.458-0.357,2.894-0.707,4.312-1.054l-0.164,0.213c-0.041-2.507-0.082-4.956-0.122-7.344l0.165,0.2
						c-1.474-0.309-2.922-0.612-4.345-0.91l-0.12-0.025l-0.033-0.118c-0.44-1.557-1.082-3.02-1.881-4.346l-0.061-0.102l0.061-0.101
						c0.791-1.3,1.558-2.56,2.307-3.79l0.03,0.232c-1.855-1.798-3.606-3.496-5.273-5.112l0.215,0.02
						c-1.308,0.852-2.534,1.652-3.717,2.423l-0.083,0.054l-0.085-0.048c-1.479-0.828-2.962-1.387-4.413-1.75l-0.088-0.022
						l-0.021-0.087c-0.379-1.568-0.72-2.981-1.043-4.315l0.132,0.102c-2.845,0.037-5.269,0.069-7.344,0.096l0.097-0.081
						c-0.372,1.734-0.678,3.156-0.932,4.341l-0.009,0.043l-0.042,0.012c-1.554,0.434-2.647,0.941-3.358,1.292
						c-0.339,0.177-0.599,0.313-0.79,0.413C339.431,110.686,339.346,110.728,339.346,110.721c0-0.006,0.084-0.063,0.245-0.167
						c0.168-0.103,0.422-0.258,0.774-0.446c0.703-0.374,1.792-0.906,3.353-1.365l-0.051,0.055c0.239-1.188,0.526-2.614,0.876-4.352
						l0.016-0.079l0.082-0.002c2.075-0.045,4.498-0.099,7.343-0.161l0.106-0.002l0.026,0.104c0.331,1.332,0.682,2.742,1.071,4.308
						l-0.108-0.108c1.477,0.36,2.989,0.921,4.499,1.755l-0.168,0.006c1.18-0.777,2.402-1.583,3.706-2.442l0.115-0.076l0.1,0.096
						c1.674,1.609,3.432,3.3,5.294,5.091l0.108,0.104l-0.078,0.129c-0.745,1.233-1.507,2.496-2.294,3.798l0-0.202
						c0.82,1.353,1.482,2.847,1.935,4.438l-0.153-0.143c1.423,0.295,2.872,0.594,4.347,0.899l0.163,0.034l0.003,0.166
						c0.044,2.388,0.09,4.836,0.136,7.343l0.003,0.172l-0.167,0.041c-1.418,0.349-2.853,0.702-4.311,1.06l0.16-0.16
						c-0.382,1.554-0.974,3.078-1.771,4.511l-0.008-0.229c0.803,1.225,1.615,2.462,2.434,3.71l0.098,0.149l-0.124,0.129
						c-1.676,1.737-3.377,3.499-5.1,5.285l-0.125,0.13l-0.154-0.094c-1.254-0.76-2.521-1.528-3.795-2.3l0.234,0l-0.004,0.002
						c-1.424,0.863-2.96,1.511-4.443,1.93l0.159-0.171c-0.311,1.492-0.619,2.974-0.905,4.346l-0.037,0.176l-0.179,0.003
						c-2.526,0.043-5.019,0.086-7.344,0.126l-0.177,0.003l-0.042-0.172c-0.364-1.488-0.724-2.962-1.054-4.313l0.16,0.16
						c-1.633-0.401-3.183-1.035-4.508-1.777l0.222-0.008c-1.287,0.842-2.557,1.673-3.714,2.429l-0.141,0.092l-0.121-0.117
						c-1.832-1.773-3.62-3.504-5.278-5.108l-0.116-0.112l0.084-0.137c0.803-1.32,1.591-2.616,2.306-3.791l0,0.202
						c-0.876-1.451-1.515-2.993-1.921-4.442l0.142,0.131c-1.518-0.319-3-0.63-4.345-0.913l-0.139-0.029l-0.002-0.142
						c-0.039-2.577-0.077-5.031-0.112-7.344l-0.002-0.129l0.125-0.03c1.514-0.367,2.97-0.719,4.315-1.045l-0.108,0.109
						c0.414-1.657,1.039-3.164,1.781-4.484l0.005,0.137c-0.871-1.341-1.685-2.594-2.418-3.721l-0.05-0.077l0.064-0.065
						c2.09-2.14,3.817-3.909,5.132-5.255l0.041-0.042l0.048,0.03c1.213,0.755,2.147,1.336,2.795,1.739
						c0.306,0.194,0.543,0.344,0.719,0.456C339.264,110.659,339.346,110.715,339.346,110.721z"/>
				</g>
			</g>
		</g>
	</g>
	<g>
		<g>
			<g>
				<g>
					<path style="fill:#EBEBEB;" d="M133.907,85.2c-0.071-0.002-0.162-0.822-0.269-2.371c-0.034-0.776-0.105-1.731-0.318-2.847
						c-0.173-1.119-0.333-2.414-0.748-3.825c-0.626-2.861-1.923-6.246-3.972-9.841c-2.067-3.58-5.058-7.33-9.151-10.54
						c-4.081-3.18-9.24-5.917-15.229-7.101c-5.948-1.145-12.684-1.102-19.141,1.194c-3.248,1.048-6.393,2.671-9.296,4.742
						c-1.499,0.979-2.816,2.219-4.196,3.407c-1.25,1.325-2.564,2.616-3.651,4.126c-4.603,5.833-7.297,13.402-7.563,21.264
						c-0.119,7.869,2.204,15.561,6.519,21.613c1.012,1.561,2.262,2.915,3.446,4.299c1.321,1.254,2.576,2.557,4.026,3.608
						c2.799,2.211,5.863,3.985,9.057,5.189c6.338,2.607,13.065,2.977,19.062,2.121c6.039-0.893,11.325-3.376,15.555-6.355
						c4.244-3.008,7.413-6.609,9.651-10.084c2.221-3.491,3.68-6.808,4.444-9.636c0.483-1.389,0.705-2.675,0.932-3.784
						c0.266-1.104,0.383-2.054,0.455-2.828C133.706,86.014,133.836,85.199,133.907,85.2c0.07,0.002,0.079,0.821,0.028,2.391
						c-0.006,0.787-0.06,1.758-0.266,2.891c-0.167,1.138-0.332,2.461-0.765,3.897c-0.663,2.921-2.046,6.374-4.243,10.033
						c-2.214,3.643-5.415,7.443-9.77,10.648c-4.34,3.174-9.824,5.848-16.134,6.859c-6.265,0.973-13.326,0.649-20.021-2.04
						c-3.37-1.245-6.61-3.091-9.573-5.404c-1.532-1.102-2.866-2.464-4.261-3.784c-1.259-1.45-2.579-2.878-3.655-4.519
						c-4.574-6.368-7.055-14.505-6.922-22.813c0.273-8.302,3.147-16.306,8.023-22.443c1.154-1.586,2.542-2.947,3.869-4.335
						c1.458-1.25,2.856-2.545,4.44-3.571c3.071-2.166,6.396-3.852,9.822-4.932c6.816-2.361,13.884-2.342,20.094-1.066
						c6.253,1.315,11.601,4.252,15.782,7.633c4.195,3.411,7.207,7.363,9.243,11.109c2.018,3.761,3.231,7.278,3.752,10.228
						c0.362,1.456,0.463,2.785,0.575,3.93c0.151,1.142,0.157,2.114,0.125,2.901C134.025,84.384,133.978,85.202,133.907,85.2z"/>
				</g>
			</g>
		</g>
		<g>
			<g>
				<g>
					<path style="fill:#EBEBEB;" d="M126.448,61.905c0.082,0.115-0.59,0.7-1.889,1.666c-0.712,0.511-1.508,1.083-2.4,1.722
						c-0.476,0.325-0.973,0.694-1.527,1.041c-0.587,0.307-1.199,0.627-1.836,0.96c-4.989,2.883-12.894,5.827-21.921,5.521
						c-1.12-0.05-2.227-0.099-3.318-0.148c-1.077-0.169-2.14-0.335-3.184-0.498c-0.521-0.088-1.04-0.158-1.548-0.26
						c-0.5-0.133-0.996-0.265-1.487-0.396c-0.978-0.271-1.945-0.501-2.867-0.796c-3.659-1.272-6.819-2.756-9.301-4.285
						c-4.997-3.021-7.429-5.77-7.24-5.947c0.202-0.231,2.918,2.07,7.951,4.683c2.501,1.327,5.613,2.62,9.156,3.746
						c0.892,0.259,1.825,0.455,2.766,0.697c0.472,0.117,0.948,0.235,1.429,0.354c0.49,0.074,0.984,0.149,1.483,0.224
						c0.998,0.147,2.013,0.296,3.043,0.448c1.04,0.042,2.095,0.085,3.163,0.128c8.582,0.296,16.184-2.276,21.227-4.767
						c0.645-0.28,1.264-0.549,1.858-0.806c0.566-0.296,1.079-0.613,1.573-0.886c0.945-0.521,1.79-0.986,2.545-1.402
						C125.537,62.153,126.366,61.79,126.448,61.905z"/>
				</g>
			</g>
		</g>
		<g>
			<g>
				<g>
					<path style="fill:#EBEBEB;" d="M66.795,107.24c-0.082-0.115,0.59-0.7,1.889-1.666c0.712-0.511,1.509-1.083,2.4-1.722
						c0.476-0.326,0.973-0.694,1.527-1.041c0.587-0.307,1.199-0.627,1.836-0.96c4.989-2.883,12.894-5.827,21.921-5.52
						c1.12,0.05,2.227,0.099,3.318,0.148c1.077,0.168,2.14,0.335,3.185,0.498c0.521,0.088,1.04,0.157,1.547,0.26
						c0.5,0.133,0.996,0.265,1.487,0.396c0.978,0.272,1.945,0.501,2.867,0.797c3.659,1.272,6.819,2.756,9.301,4.285
						c4.997,3.021,7.429,5.77,7.24,5.946c-0.202,0.231-2.917-2.07-7.951-4.683c-2.501-1.327-5.613-2.62-9.156-3.746
						c-0.892-0.259-1.825-0.455-2.766-0.697c-0.472-0.117-0.948-0.235-1.429-0.355c-0.49-0.074-0.984-0.149-1.483-0.224
						c-0.999-0.147-2.013-0.296-3.043-0.448c-1.04-0.042-2.095-0.085-3.163-0.128c-8.582-0.296-16.184,2.276-21.227,4.767
						c-0.645,0.28-1.264,0.549-1.857,0.806c-0.566,0.296-1.079,0.613-1.573,0.886c-0.945,0.521-1.79,0.986-2.545,1.402
						C67.705,106.991,66.877,107.355,66.795,107.24z"/>
				</g>
			</g>
		</g>
		<g>
			<g>
				<g>
					<path style="fill:#EBEBEB;" d="M133.886,86.066c-0.014,0.566-16.717,0.619-37.302,0.12c-20.592-0.5-37.269-1.364-37.256-1.93
						c0.014-0.566,16.713-0.619,37.305-0.119C117.219,84.636,133.9,85.501,133.886,86.066z"/>
				</g>
			</g>
		</g>
		<g>
			<g>
				<g>
					<path style="fill:#EBEBEB;" d="M94.888,121.539c-0.566-0.014-0.62-16.711-0.12-37.289c0.5-20.586,1.364-37.257,1.93-37.243
						c0.566,0.014,0.619,16.707,0.119,37.293C96.318,104.878,95.454,121.553,94.888,121.539z"/>
				</g>
			</g>
		</g>
		<g>
			<g>
				<g>
					<path style="fill:#EBEBEB;" d="M94.89,121.483c-0.141,0.217-4.248-2.568-8.989-8.874c-2.344-3.149-4.804-7.202-6.664-12.1
						c-1.851-4.889-3.011-10.644-2.885-16.706c0.108-6.082,1.636-11.772,3.764-16.538c2.128-4.785,4.799-8.692,7.282-11.727
						c5.021-6.068,9.162-8.757,9.301-8.541c0.201,0.233-3.55,3.285-8.159,9.434c-2.28,3.074-4.74,6.945-6.691,11.584
						c-1.951,4.624-3.344,10.048-3.448,15.827c-0.119,5.784,0.927,11.286,2.61,16.019c1.691,4.742,3.938,8.737,6.072,11.91
						C91.399,118.126,95.097,121.258,94.89,121.483z"/>
				</g>
			</g>
		</g>
		<g>
			<g>
				<g>
					<path style="fill:#EBEBEB;" d="M97.534,47.017c0.141-0.217,4.248,2.568,8.989,8.874c2.344,3.149,4.804,7.202,6.664,12.1
						c1.851,4.889,3.01,10.644,2.885,16.706c-0.108,6.082-1.636,11.772-3.764,16.538c-2.128,4.785-4.799,8.692-7.282,11.727
						c-5.021,6.068-9.162,8.757-9.301,8.541c-0.201-0.233,3.55-3.285,8.159-9.435c2.279-3.074,4.74-6.945,6.69-11.584
						c1.951-4.625,3.345-10.048,3.448-15.827c0.119-5.784-0.927-11.285-2.61-16.019c-1.691-4.742-3.938-8.737-6.072-11.91
						C101.024,50.374,97.326,47.242,97.534,47.017z"/>
				</g>
			</g>
		</g>
	</g>
	<g>
		<g>
			<g>
				<g>
					<path style="fill:#E0E0E0;" d="M178.671,123.859c3.132-1.892,6.465-3.327,9.904-4.304l2.04-9.803l16.563-0.29l2.384,9.724
						c3.471,0.855,6.854,2.172,10.05,3.954l8.371-5.487l11.917,11.507l-5.188,8.557c1.893,3.133,3.328,6.468,4.304,9.906l9.802,2.04
						l0.291,16.563l-9.725,2.384c-0.855,3.47-2.172,6.852-3.953,10.049l5.486,8.372l-11.505,11.918l-8.558-5.189
						c-3.132,1.893-6.466,3.327-9.905,4.304l-2.041,9.803l-16.562,0.291l-2.384-9.725c-3.471-0.855-6.853-2.173-10.049-3.954
						l-8.371,5.487l-11.918-11.507l5.189-8.557c-1.893-3.132-3.328-6.466-4.305-9.906l-9.803-2.04l-0.291-16.563l9.725-2.385
						c0.855-3.47,2.173-6.852,3.953-10.049l-5.486-8.371l11.506-11.917L178.671,123.859L178.671,123.859z M187.501,145.923
						c-6.817,7.061-6.62,18.311,0.442,25.128c7.061,6.817,18.311,6.619,25.127-0.442c6.816-7.061,6.62-18.311-0.442-25.128
						C205.567,138.665,194.317,138.862,187.501,145.923z"/>
				</g>
			</g>
			<g>
				<g>
					<g>
						<path style="fill:#E0E0E0;" d="M187.501,145.923c0,0,0.929-1.31,3.309-2.904c2.335-1.556,6.417-3.287,11.594-2.741
							c2.549,0.286,5.337,1.118,7.879,2.799c2.514,1.681,4.889,4.073,6.372,7.18c0.781,1.525,1.323,3.219,1.617,4.988
							c0.32,1.765,0.365,3.622,0.1,5.47c-0.45,3.713-2.205,7.37-4.933,10.245c-2.777,2.829-6.372,4.712-10.067,5.293
							c-1.838,0.331-3.696,0.35-5.472,0.093c-1.778-0.231-3.491-0.713-5.042-1.441c-3.156-1.373-5.631-3.662-7.4-6.117
							c-1.77-2.481-2.698-5.24-3.074-7.777c-0.728-5.154,0.86-9.294,2.333-11.682C186.224,146.898,187.501,145.923,187.501,145.923
							c0.096,0.081-1.073,1.166-2.442,3.606c-1.338,2.397-2.755,6.441-1.964,11.376c0.406,2.43,1.333,5.051,3.051,7.396
							c1.716,2.318,4.091,4.473,7.093,5.749c1.476,0.679,3.101,1.124,4.786,1.334c1.683,0.235,3.441,0.208,5.177-0.112
							c3.493-0.562,6.876-2.346,9.502-5.017c2.575-2.719,4.239-6.161,4.677-9.671c0.259-1.746,0.224-3.504-0.071-5.177
							c-0.268-1.676-0.769-3.285-1.5-4.736c-1.38-2.955-3.617-5.253-5.993-6.887c-2.403-1.634-5.056-2.468-7.498-2.789
							c-4.959-0.617-8.951,0.94-11.3,2.363C188.628,144.81,187.585,146.017,187.501,145.923z"/>
					</g>
				</g>
			</g>
			<g>
				<g>
					<g>
						<path style="fill:#E0E0E0;" d="M178.671,123.858c0,0.014-0.185-0.084-0.552-0.291c-0.403-0.233-0.942-0.545-1.641-0.949
							c-1.496-0.884-3.652-2.157-6.45-3.81l0.201-0.026c-2.928,3.068-6.779,7.103-11.436,11.984l0.031-0.321
							c1.672,2.53,3.531,5.341,5.52,8.349l0.099,0.15l-0.088,0.16c-1.627,2.946-2.993,6.301-3.89,9.983l-0.048,0.196l-0.198,0.049
							c-3.029,0.752-6.308,1.565-9.718,2.412l0.276-0.358c0.104,5.215,0.214,10.75,0.329,16.561l-0.319-0.385
							c3.036,0.626,6.379,1.314,9.806,2.021l0.25,0.052l0.07,0.246c0.91,3.197,2.333,6.597,4.275,9.793l0.138,0.227l-0.138,0.229
							c-1.605,2.655-3.374,5.583-5.176,8.565l-0.073-0.562c3.747,3.61,7.789,7.502,11.931,11.492l-0.589-0.055
							c2.606-1.712,5.467-3.591,8.366-5.495l0.245-0.161l0.256,0.143c2.922,1.628,6.335,3.019,9.931,3.898l0.29,0.07l0.071,0.29
							c0.748,3.046,1.566,6.368,2.39,9.724l-0.494-0.38c5.244-0.094,10.865-0.195,16.563-0.298l-0.486,0.403
							c0.643-3.096,1.338-6.438,2.038-9.803l0.063-0.302l0.296-0.084c3.262-0.923,6.64-2.349,9.772-4.245l0.009-0.005l0.267-0.158
							l0.261,0.158c2.873,1.742,5.729,3.474,8.557,5.189l-0.629,0.081c3.889-4.026,7.727-7.999,11.508-11.915l-0.059,0.627
							c-1.845-2.819-3.673-5.61-5.482-8.373l-0.166-0.254l0.148-0.264c1.759-3.152,3.066-6.503,3.911-9.924l0.072-0.291l0.29-0.071
							c3.289-0.804,6.528-1.595,9.726-2.377l-0.369,0.48c-0.094-5.654-0.185-11.177-0.274-16.562l0.373,0.45
							c-3.325-0.696-6.591-1.381-9.799-2.052l-0.271-0.057l-0.075-0.266c-0.992-3.512-2.441-6.81-4.242-9.802l-0.138-0.229
							l0.138-0.227c1.784-2.931,3.514-5.773,5.202-8.548l0.068,0.524c-4.184-4.056-8.133-7.885-11.893-11.53l0.485,0.045
							c-2.949,1.922-5.716,3.726-8.384,5.466l-0.186,0.121l-0.192-0.108c-3.336-1.866-6.68-3.128-9.952-3.948l-0.198-0.049
							l-0.047-0.196c-0.854-3.537-1.624-6.723-2.352-9.732l0.298,0.229c-6.417,0.084-11.883,0.156-16.564,0.218l0.219-0.182
							c-0.84,3.91-1.529,7.118-2.103,9.79l-0.021,0.098l-0.095,0.026c-3.505,0.978-5.971,2.122-7.574,2.914
							c-0.766,0.4-1.352,0.706-1.781,0.931C178.861,123.777,178.671,123.872,178.671,123.858c0.001-0.013,0.189-0.143,0.552-0.376
							c0.379-0.233,0.952-0.582,1.746-1.006c1.585-0.843,4.042-2.043,7.562-3.079l-0.115,0.124c0.54-2.679,1.187-5.895,1.976-9.816
							l0.036-0.178l0.184-0.004c4.679-0.102,10.146-0.222,16.561-0.363l0.239-0.005l0.059,0.235
							c0.747,3.005,1.538,6.185,2.416,9.716l-0.245-0.245c3.33,0.813,6.741,2.077,10.147,3.959l-0.378,0.014
							c2.66-1.753,5.418-3.57,8.357-5.507l0.26-0.171l0.225,0.217c3.775,3.629,7.74,7.443,11.94,11.482l0.243,0.234l-0.176,0.29
							c-1.68,2.781-3.4,5.628-5.174,8.565l0.001-0.456c1.85,3.052,3.341,6.42,4.365,10.009l-0.346-0.322
							c3.21,0.664,6.478,1.34,9.805,2.028l0.367,0.076l0.007,0.376c0.1,5.385,0.203,10.908,0.308,16.561l0.007,0.388l-0.377,0.093
							c-3.197,0.787-6.435,1.583-9.723,2.392l0.361-0.361c-0.861,3.505-2.196,6.942-3.995,10.174l-0.019-0.517
							c1.812,2.762,3.642,5.552,5.49,8.368l0.221,0.337l-0.279,0.29c-3.78,3.917-7.616,7.892-11.502,11.921l-0.282,0.292
							l-0.347-0.211c-2.829-1.715-5.685-3.446-8.558-5.187l0.527,0l-0.009,0.005c-3.212,1.946-6.677,3.407-10.021,4.352l0.359-0.385
							c-0.701,3.365-1.397,6.706-2.042,9.802l-0.083,0.396l-0.404,0.007c-5.698,0.097-11.319,0.193-16.563,0.283l-0.399,0.007
							l-0.095-0.388c-0.821-3.356-1.633-6.68-2.378-9.726l0.361,0.361c-3.683-0.905-7.178-2.335-10.166-4.009l0.501-0.018
							c-2.903,1.898-5.768,3.773-8.377,5.479l-0.317,0.208l-0.272-0.263c-4.133-4-8.164-7.902-11.903-11.521l-0.262-0.253
							l0.189-0.31c1.811-2.976,3.589-5.899,5.201-8.549l0,0.454c-1.976-3.272-3.416-6.75-4.333-10.017l0.319,0.296
							c-3.425-0.719-6.765-1.421-9.799-2.059l-0.314-0.066l-0.006-0.32c-0.089-5.812-0.173-11.347-0.253-16.563l-0.004-0.291
							l0.281-0.068c3.415-0.827,6.699-1.622,9.732-2.357l-0.244,0.245c0.933-3.738,2.344-7.136,4.017-10.114l0.011,0.309
							c-1.964-3.024-3.8-5.85-5.453-8.393l-0.113-0.175l0.144-0.147c4.713-4.826,8.61-8.816,11.574-11.851l0.092-0.094l0.109,0.068
							c2.735,1.702,4.842,3.013,6.304,3.923c0.69,0.438,1.223,0.777,1.621,1.029C178.486,123.718,178.671,123.844,178.671,123.858z"
							/>
					</g>
				</g>
			</g>
		</g>
		<g>
			<g>
				<g>
					<path style="fill:#EBEBEB;" d="M266.57,57.603c2.352-1.421,4.856-2.499,7.438-3.233l1.532-7.362l12.439-0.218l1.79,7.303
						c2.607,0.642,5.147,1.631,7.547,2.969l6.287-4.121l8.95,8.642l-3.897,6.426c1.422,2.353,2.499,4.857,3.233,7.44l7.361,1.532
						l0.219,12.439l-7.303,1.791c-0.642,2.606-1.631,5.146-2.969,7.547l4.12,6.287l-8.64,8.95l-6.427-3.897
						c-2.352,1.421-4.857,2.499-7.439,3.232l-1.532,7.363l-12.439,0.218l-1.79-7.304c-2.606-0.642-5.146-1.632-7.547-2.969
						l-6.286,4.121l-8.95-8.641l3.897-6.427c-1.422-2.352-2.5-4.856-3.233-7.439l-7.362-1.532l-0.218-12.439l7.303-1.791
						c0.642-2.606,1.632-5.146,2.969-7.547l-4.121-6.287l8.641-8.95L266.57,57.603L266.57,57.603z M273.201,74.174
						c-5.12,5.303-4.971,13.752,0.332,18.871c5.302,5.12,13.751,4.971,18.871-0.332c5.119-5.303,4.971-13.752-0.332-18.871
						C286.769,68.722,278.321,68.871,273.201,74.174z"/>
				</g>
			</g>
		</g>
	</g>
	<g>
		<g>
			<g>
				<g>
					<path style="fill:#E0E0E0;" d="M124.023,391.385c-0.024-0.026,0.245-0.328,0.752-0.854c0.591-0.594,1.319-1.326,2.18-2.191
						c1.856-1.834,4.444-4.341,7.324-7.088l0.065-0.062l0.003,0.37c-2.902-2.696-5.507-5.154-7.374-6.95
						c-0.866-0.848-1.599-1.565-2.193-2.146c-0.51-0.515-0.781-0.812-0.757-0.837s0.339,0.222,0.89,0.693
						c0.624,0.55,1.393,1.227,2.302,2.028c1.929,1.729,4.573,4.145,7.475,6.84l0.198,0.184l-0.196,0.187l-0.065,0.063
						c-2.88,2.747-5.507,5.213-7.426,6.98c-0.905,0.819-1.67,1.512-2.291,2.074C124.362,391.157,124.047,391.411,124.023,391.385z"
						/>
				</g>
			</g>
		</g>
		<g>
			<g>
				<g>
					<path style="fill:#E0E0E0;" d="M101.626,371.627c0.024,0.025-0.245,0.328-0.752,0.854c-0.591,0.594-1.319,1.326-2.18,2.191
						c-1.856,1.834-4.444,4.341-7.324,7.088l-0.065,0.062l-0.003-0.37c2.902,2.696,5.507,5.153,7.374,6.95
						c0.866,0.848,1.599,1.565,2.193,2.146c0.51,0.515,0.781,0.812,0.757,0.837c-0.024,0.026-0.339-0.222-0.89-0.693
						c-0.624-0.55-1.393-1.228-2.302-2.028c-1.93-1.729-4.573-4.145-7.476-6.84l-0.198-0.184l0.196-0.187l0.065-0.062
						c2.88-2.747,5.507-5.214,7.426-6.98c0.905-0.819,1.67-1.512,2.291-2.074C101.287,371.855,101.602,371.601,101.626,371.627z"/>
				</g>
			</g>
		</g>
		<g>
			<g>
				<g>
					<path style="fill:#E0E0E0;" d="M107.375,396.04c-0.131-0.049,2.22-6.658,5.25-14.759c3.031-8.104,5.594-14.631,5.725-14.581
						c0.131,0.049-2.22,6.656-5.251,14.76C110.068,389.56,107.506,396.089,107.375,396.04z"/>
				</g>
			</g>
		</g>
		<g>
			<g>
				<g>
					<path style="fill:#E0E0E0;" d="M149.476,410.18c0,0-0.015-0.384-0.023-1.105c-0.006-0.736-0.014-1.798-0.024-3.179
						c-0.013-2.791-0.031-6.858-0.054-12.04c-0.026-10.366-0.064-25.179-0.109-43.04l0.211,0.212
						c-20.841,0.012-45.902,0.027-72.851,0.042h-0.006l0.253-0.254c-0.01,21.46-0.019,41.727-0.027,59.365l-0.226-0.227
						c21.631,0.047,39.815,0.086,52.609,0.114c6.398,0.026,11.445,0.046,14.912,0.06c1.72,0.012,3.044,0.021,3.958,0.027
						c0.44,0.006,0.778,0.01,1.023,0.013C149.352,410.171,149.476,410.18,149.476,410.18s-0.107,0.009-0.329,0.013
						c-0.239,0.003-0.569,0.008-0.998,0.013c-0.904,0.006-2.213,0.015-3.914,0.027c-3.455,0.014-8.485,0.034-14.86,0.06
						c-12.829,0.028-31.064,0.067-52.755,0.114l-0.226,0l0-0.227c-0.008-17.638-0.017-37.904-0.027-59.365v-0.254h0.253h0.006
						c26.948,0.015,52.01,0.03,72.851,0.042l0.212,0l-0.001,0.212c-0.045,17.916-0.083,32.776-0.109,43.173
						c-0.023,5.161-0.042,9.212-0.054,11.993c-0.01,1.364-0.019,2.412-0.024,3.139C149.492,409.827,149.476,410.18,149.476,410.18z"
						/>
				</g>
			</g>
		</g>
		<g>
			<g>
				<g>
					<path style="fill:#E0E0E0;" d="M150.047,359.623c0,0.14-16.446,0.254-36.728,0.254c-20.289,0-36.732-0.114-36.732-0.254
						c0-0.14,16.442-0.254,36.732-0.254C133.601,359.369,150.047,359.483,150.047,359.623z"/>
				</g>
			</g>
		</g>
		<g>
			<g>
				<g>
					<path style="fill:#E0E0E0;" d="M82.565,355.291c0,0.544-0.439,0.985-0.981,0.985s-0.981-0.441-0.981-0.985
						c0-0.544,0.439-0.985,0.981-0.985S82.565,354.747,82.565,355.291z"/>
				</g>
			</g>
			<g>
				<g>
					<ellipse style="fill:#E0E0E0;" cx="85.16" cy="355.291" rx="0.981" ry="0.985"/>
				</g>
			</g>
			<g>
				<g>
					<path style="fill:#E0E0E0;" d="M89.716,355.291c0,0.544-0.439,0.985-0.981,0.985c-0.542,0-0.981-0.441-0.981-0.985
						c0-0.544,0.439-0.985,0.981-0.985C89.277,354.306,89.716,354.747,89.716,355.291z"/>
				</g>
			</g>
		</g>
	</g>
</g>
<g id="Background_Simple" style="display:none;">
	<path style="display:inline;fill:#F5F5F5;" d="M724.983,109.349l-0.464-3.018c-3.916-25.439-21.144-46.934-45.277-55.187
		c-3.102-1.061-6.282-1.899-9.515-2.493c-23.277-4.28-48.579,4.183-64.868,21.696c-9.58,10.3-16.655,23.797-29.266,29.899
		c-16.412,7.941-35.592,0.459-52.095-6.987c-16.503-7.447-35.716-14.884-52.094-6.871c-10.257,5.019-17.135,15.348-20.96,26.175
		c-10.127,28.664-0.971,61.836,18.72,84.596c19.691,22.76,48.491,35.997,77.963,41.781c41.287,8.102,86.263,2.018,121.541-21.541
		C703.945,193.84,727.845,151.734,724.983,109.349z"/>
	<path style="display:inline;fill:#F5F5F5;" d="M46.224,247.265l1.818,2.184c15.322,18.413,39.371,27.295,62.578,22.306
		c2.983-0.641,5.921-1.498,8.784-2.574c20.618-7.749,36.741-26.632,41.335-48.412c2.702-12.809,1.873-26.967,9.005-37.881
		c9.282-14.204,28.168-17.434,44.902-19.408c16.734-1.975,35.625-5.256,44.845-19.501c5.775-8.922,6.307-20.459,4.166-30.929
		c-5.668-27.718-28.878-49.787-55.498-58.497c-26.62-8.711-55.939-5.458-82.22,4.061C89.123,71.95,56.168,98.371,39.327,134.079
		C22.487,169.787,23.617,214.831,46.224,247.265z"/>
	<circle style="display:inline;fill:#F5F5F5;" cx="348.161" cy="87.729" r="27.896"/>
	<circle style="display:inline;fill:#F5F5F5;" cx="88.142" cy="386.874" r="27.896"/>
</g>
<g id="Floor">
	<g>
		<path style="fill:#263238;" d="M728.998,449.073c0,0.144-152.486,0.26-340.543,0.26c-188.123,0-340.576-0.117-340.576-0.26
			c0-0.144,152.453-0.26,340.576-0.26C576.512,448.813,728.998,448.93,728.998,449.073z"/>
	</g>
</g>
<g id="Server">
	<g>
		<g>
			
				<rect x="623.718" y="205.489" transform="matrix(-1 -1.224647e-16 1.224647e-16 -1 1326.3892 652.8371)" style="fill:#EBEBEB;" width="78.954" height="241.859"/>
			<polygon style="fill:#E0E0E0;" points="561.43,447.348 623.718,447.348 623.83,205.489 561.43,205.489 			"/>
			<g>
				
					<rect x="631.325" y="244.197" transform="matrix(-1 -1.224647e-16 1.224647e-16 -1 1329.6254 507.2505)" style="fill:#263238;" width="66.975" height="18.855"/>
				
					<rect x="692.68" y="246.568" transform="matrix(-1 -1.224647e-16 1.224647e-16 -1 1389.1117 507.5667)" style="fill:#455A64;" width="3.751" height="14.431"/>
				<path style="fill:#FFFFFF;" d="M688.262,249.604c0,0.658,0.534,1.192,1.192,1.192c0.658,0,1.192-0.534,1.192-1.192
					s-0.534-1.192-1.192-1.192C688.796,248.411,688.262,248.945,688.262,249.604z"/>
				<path style="fill:#FFFFFF;" d="M688.262,254.702c0,0.658,0.534,1.192,1.192,1.192c0.658,0,1.192-0.534,1.192-1.192
					s-0.534-1.192-1.192-1.192C688.796,253.51,688.262,254.044,688.262,254.702z"/>
				
					<rect x="679.813" y="248.411" transform="matrix(-1 -1.224647e-16 1.224647e-16 -1 1363.3104 507.908)" style="fill:#455A64;" width="3.685" height="11.085"/>
				
					<rect x="674.489" y="248.411" transform="matrix(-1 -1.224647e-16 1.224647e-16 -1 1352.6638 507.908)" style="fill:#455A64;" width="3.685" height="11.085"/>
				
					<rect x="669.166" y="248.411" transform="matrix(-1 -1.224647e-16 1.224647e-16 -1 1342.0171 507.908)" style="fill:#455A64;" width="3.685" height="11.085"/>
				
					<rect x="663.842" y="248.411" transform="matrix(-1 -1.224647e-16 1.224647e-16 -1 1331.3704 507.908)" style="fill:#455A64;" width="3.685" height="11.085"/>
				
					<rect x="658.519" y="248.411" transform="matrix(-1 -1.224647e-16 1.224647e-16 -1 1320.7238 507.908)" style="fill:#455A64;" width="3.685" height="11.085"/>
				
					<rect x="653.196" y="248.411" transform="matrix(-1 -1.224647e-16 1.224647e-16 -1 1310.077 507.908)" style="fill:#455A64;" width="3.685" height="11.085"/>
				
					<rect x="647.873" y="248.411" transform="matrix(-1 -1.224647e-16 1.224647e-16 -1 1299.4305 507.908)" style="fill:#455A64;" width="3.685" height="11.085"/>
				
					<rect x="642.549" y="248.411" transform="matrix(-1 -1.224647e-16 1.224647e-16 -1 1288.7838 507.908)" style="fill:#455A64;" width="3.685" height="11.085"/>
				
					<rect x="637.226" y="248.411" transform="matrix(-1 -1.224647e-16 1.224647e-16 -1 1278.1372 507.908)" style="fill:#455A64;" width="3.685" height="11.085"/>
				
					<rect x="631.903" y="248.411" transform="matrix(-1 -1.224647e-16 1.224647e-16 -1 1267.4905 507.908)" style="fill:#455A64;" width="3.685" height="11.085"/>
			</g>
			<g>
				
					<rect x="631.325" y="271.285" transform="matrix(-1 -1.224647e-16 1.224647e-16 -1 1329.6254 561.426)" style="fill:#263238;" width="66.975" height="18.856"/>
				
					<rect x="692.68" y="273.656" transform="matrix(-1 -1.224647e-16 1.224647e-16 -1 1389.1117 561.7423)" style="fill:#455A64;" width="3.751" height="14.431"/>
				<path style="fill:#FFFFFF;" d="M688.262,276.691c0,0.658,0.534,1.192,1.192,1.192c0.658,0,1.192-0.534,1.192-1.192
					c0-0.658-0.534-1.192-1.192-1.192C688.796,275.499,688.262,276.033,688.262,276.691z"/>
				<path style="fill:#FFFFFF;" d="M688.262,281.79c0,0.658,0.534,1.192,1.192,1.192c0.658,0,1.192-0.534,1.192-1.192
					c0-0.658-0.534-1.192-1.192-1.192C688.796,280.598,688.262,281.132,688.262,281.79z"/>
				
					<rect x="679.813" y="275.499" transform="matrix(-1 -1.224647e-16 1.224647e-16 -1 1363.3104 562.0835)" style="fill:#455A64;" width="3.685" height="11.085"/>
				
					<rect x="674.489" y="275.499" transform="matrix(-1 -1.224647e-16 1.224647e-16 -1 1352.6638 562.0835)" style="fill:#455A64;" width="3.685" height="11.085"/>
				
					<rect x="669.166" y="275.499" transform="matrix(-1 -1.224647e-16 1.224647e-16 -1 1342.0171 562.0835)" style="fill:#455A64;" width="3.685" height="11.085"/>
				
					<rect x="663.842" y="275.499" transform="matrix(-1 -1.224647e-16 1.224647e-16 -1 1331.3704 562.0835)" style="fill:#455A64;" width="3.685" height="11.085"/>
				
					<rect x="658.519" y="275.499" transform="matrix(-1 -1.224647e-16 1.224647e-16 -1 1320.7238 562.0835)" style="fill:#455A64;" width="3.685" height="11.085"/>
				
					<rect x="653.196" y="275.499" transform="matrix(-1 -1.224647e-16 1.224647e-16 -1 1310.077 562.0835)" style="fill:#455A64;" width="3.685" height="11.085"/>
				
					<rect x="647.873" y="275.499" transform="matrix(-1 -1.224647e-16 1.224647e-16 -1 1299.4305 562.0835)" style="fill:#455A64;" width="3.685" height="11.085"/>
				
					<rect x="642.549" y="275.499" transform="matrix(-1 -1.224647e-16 1.224647e-16 -1 1288.7838 562.0835)" style="fill:#455A64;" width="3.685" height="11.085"/>
				
					<rect x="637.226" y="275.499" transform="matrix(-1 -1.224647e-16 1.224647e-16 -1 1278.1372 562.0835)" style="fill:#455A64;" width="3.685" height="11.085"/>
				
					<rect x="631.903" y="275.499" transform="matrix(-1 -1.224647e-16 1.224647e-16 -1 1267.4905 562.0835)" style="fill:#455A64;" width="3.685" height="11.085"/>
			</g>
			<g>
				
					<rect x="631.325" y="298.59" transform="matrix(-1 -1.224647e-16 1.224647e-16 -1 1329.6254 616.0351)" style="fill:#263238;" width="66.975" height="18.855"/>
				
					<rect x="692.68" y="300.96" transform="matrix(-1 -1.224647e-16 1.224647e-16 -1 1389.1117 616.3513)" style="fill:#455A64;" width="3.751" height="14.431"/>
				<path style="fill:#FFFFFF;" d="M688.262,303.996c0,0.658,0.534,1.192,1.192,1.192c0.658,0,1.192-0.534,1.192-1.192
					c0-0.658-0.534-1.192-1.192-1.192C688.796,302.804,688.262,303.337,688.262,303.996z"/>
				<path style="fill:#FFFFFF;" d="M688.262,309.095c0,0.658,0.534,1.192,1.192,1.192c0.658,0,1.192-0.534,1.192-1.192
					c0-0.658-0.534-1.192-1.192-1.192C688.796,307.903,688.262,308.436,688.262,309.095z"/>
				
					<rect x="679.813" y="302.804" transform="matrix(-1 -1.224647e-16 1.224647e-16 -1 1363.3104 616.6927)" style="fill:#455A64;" width="3.685" height="11.085"/>
				
					<rect x="674.489" y="302.804" transform="matrix(-1 -1.224647e-16 1.224647e-16 -1 1352.6638 616.6927)" style="fill:#455A64;" width="3.685" height="11.085"/>
				
					<rect x="669.166" y="302.804" transform="matrix(-1 -1.224647e-16 1.224647e-16 -1 1342.0171 616.6927)" style="fill:#455A64;" width="3.685" height="11.085"/>
				
					<rect x="663.842" y="302.804" transform="matrix(-1 -1.224647e-16 1.224647e-16 -1 1331.3704 616.6927)" style="fill:#455A64;" width="3.685" height="11.085"/>
				
					<rect x="658.519" y="302.804" transform="matrix(-1 -1.224647e-16 1.224647e-16 -1 1320.7238 616.6927)" style="fill:#455A64;" width="3.685" height="11.085"/>
				
					<rect x="653.196" y="302.804" transform="matrix(-1 -1.224647e-16 1.224647e-16 -1 1310.077 616.6927)" style="fill:#455A64;" width="3.685" height="11.085"/>
				
					<rect x="647.873" y="302.804" transform="matrix(-1 -1.224647e-16 1.224647e-16 -1 1299.4305 616.6927)" style="fill:#455A64;" width="3.685" height="11.085"/>
				
					<rect x="642.549" y="302.804" transform="matrix(-1 -1.224647e-16 1.224647e-16 -1 1288.7838 616.6927)" style="fill:#455A64;" width="3.685" height="11.085"/>
				
					<rect x="637.226" y="302.804" transform="matrix(-1 -1.224647e-16 1.224647e-16 -1 1278.1372 616.6927)" style="fill:#455A64;" width="3.685" height="11.085"/>
				
					<rect x="631.903" y="302.804" transform="matrix(-1 -1.224647e-16 1.224647e-16 -1 1267.4905 616.6927)" style="fill:#455A64;" width="3.685" height="11.085"/>
			</g>
			<g>
				
					<rect x="631.325" y="328.086" transform="matrix(-1 -1.224647e-16 1.224647e-16 -1 1329.6254 675.0265)" style="fill:#263238;" width="66.975" height="18.855"/>
				
					<rect x="692.68" y="330.456" transform="matrix(-1 -1.224647e-16 1.224647e-16 -1 1389.1117 675.3428)" style="fill:#455A64;" width="3.751" height="14.431"/>
				<path style="fill:#FFFFFF;" d="M688.262,333.491c0,0.658,0.534,1.192,1.192,1.192c0.658,0,1.192-0.534,1.192-1.192
					c0-0.658-0.534-1.192-1.192-1.192C688.796,332.3,688.262,332.833,688.262,333.491z"/>
				<path style="fill:#FFFFFF;" d="M688.262,338.591c0,0.658,0.534,1.192,1.192,1.192c0.658,0,1.192-0.534,1.192-1.192
					c0-0.658-0.534-1.192-1.192-1.192C688.796,337.398,688.262,337.932,688.262,338.591z"/>
				
					<rect x="679.813" y="332.3" transform="matrix(-1 -1.224647e-16 1.224647e-16 -1 1363.3104 675.6841)" style="fill:#455A64;" width="3.685" height="11.085"/>
				
					<rect x="674.489" y="332.3" transform="matrix(-1 -1.224647e-16 1.224647e-16 -1 1352.6638 675.6841)" style="fill:#455A64;" width="3.685" height="11.085"/>
				
					<rect x="669.166" y="332.3" transform="matrix(-1 -1.224647e-16 1.224647e-16 -1 1342.0171 675.6841)" style="fill:#455A64;" width="3.685" height="11.085"/>
				
					<rect x="663.842" y="332.3" transform="matrix(-1 -1.224647e-16 1.224647e-16 -1 1331.3704 675.6841)" style="fill:#455A64;" width="3.685" height="11.085"/>
				
					<rect x="658.519" y="332.3" transform="matrix(-1 -1.224647e-16 1.224647e-16 -1 1320.7238 675.6841)" style="fill:#455A64;" width="3.685" height="11.085"/>
				
					<rect x="653.196" y="332.3" transform="matrix(-1 -1.224647e-16 1.224647e-16 -1 1310.077 675.6841)" style="fill:#455A64;" width="3.685" height="11.085"/>
				
					<rect x="647.873" y="332.3" transform="matrix(-1 -1.224647e-16 1.224647e-16 -1 1299.4305 675.6841)" style="fill:#455A64;" width="3.685" height="11.085"/>
				
					<rect x="642.549" y="332.3" transform="matrix(-1 -1.224647e-16 1.224647e-16 -1 1288.7838 675.6841)" style="fill:#455A64;" width="3.685" height="11.085"/>
				
					<rect x="637.226" y="332.3" transform="matrix(-1 -1.224647e-16 1.224647e-16 -1 1278.1372 675.6841)" style="fill:#455A64;" width="3.685" height="11.085"/>
				
					<rect x="631.903" y="332.3" transform="matrix(-1 -1.224647e-16 1.224647e-16 -1 1267.4905 675.6841)" style="fill:#455A64;" width="3.685" height="11.085"/>
			</g>
			<g>
				
					<rect x="631.325" y="357.873" transform="matrix(-1 -1.224647e-16 1.224647e-16 -1 1329.6254 734.6011)" style="fill:#263238;" width="66.975" height="18.855"/>
				
					<rect x="692.68" y="360.243" transform="matrix(-1 -1.224647e-16 1.224647e-16 -1 1389.1117 734.9173)" style="fill:#455A64;" width="3.751" height="14.431"/>
				<path style="fill:#FFFFFF;" d="M688.262,363.279c0,0.658,0.534,1.192,1.192,1.192c0.658,0,1.192-0.534,1.192-1.192
					c0-0.658-0.534-1.192-1.192-1.192C688.796,362.087,688.262,362.62,688.262,363.279z"/>
				<path style="fill:#FFFFFF;" d="M688.262,368.378c0,0.658,0.534,1.192,1.192,1.192c0.658,0,1.192-0.534,1.192-1.192
					c0-0.658-0.534-1.192-1.192-1.192C688.796,367.186,688.262,367.72,688.262,368.378z"/>
				
					<rect x="679.813" y="362.087" transform="matrix(-1 -1.224647e-16 1.224647e-16 -1 1363.3104 735.2586)" style="fill:#455A64;" width="3.685" height="11.085"/>
				
					<rect x="674.489" y="362.087" transform="matrix(-1 -1.224647e-16 1.224647e-16 -1 1352.6638 735.2586)" style="fill:#455A64;" width="3.685" height="11.085"/>
				
					<rect x="669.166" y="362.087" transform="matrix(-1 -1.224647e-16 1.224647e-16 -1 1342.0171 735.2586)" style="fill:#455A64;" width="3.685" height="11.085"/>
				
					<rect x="663.842" y="362.087" transform="matrix(-1 -1.224647e-16 1.224647e-16 -1 1331.3704 735.2586)" style="fill:#455A64;" width="3.685" height="11.085"/>
				
					<rect x="658.519" y="362.087" transform="matrix(-1 -1.224647e-16 1.224647e-16 -1 1320.7238 735.2586)" style="fill:#455A64;" width="3.685" height="11.085"/>
				
					<rect x="653.196" y="362.087" transform="matrix(-1 -1.224647e-16 1.224647e-16 -1 1310.077 735.2586)" style="fill:#455A64;" width="3.685" height="11.085"/>
				
					<rect x="647.873" y="362.087" transform="matrix(-1 -1.224647e-16 1.224647e-16 -1 1299.4305 735.2586)" style="fill:#455A64;" width="3.685" height="11.085"/>
				
					<rect x="642.549" y="362.087" transform="matrix(-1 -1.224647e-16 1.224647e-16 -1 1288.7838 735.2586)" style="fill:#455A64;" width="3.685" height="11.085"/>
				
					<rect x="637.226" y="362.087" transform="matrix(-1 -1.224647e-16 1.224647e-16 -1 1278.1372 735.2586)" style="fill:#455A64;" width="3.685" height="11.085"/>
				
					<rect x="631.903" y="362.087" transform="matrix(-1 -1.224647e-16 1.224647e-16 -1 1267.4905 735.2586)" style="fill:#455A64;" width="3.685" height="11.085"/>
			</g>
			<g>
				
					<rect x="631.325" y="417.156" transform="matrix(-1 -1.224647e-16 1.224647e-16 -1 1329.6254 853.1671)" style="fill:#263238;" width="66.975" height="18.855"/>
				
					<rect x="692.68" y="419.526" transform="matrix(-1 -1.224647e-16 1.224647e-16 -1 1389.1117 853.4833)" style="fill:#455A64;" width="3.751" height="14.431"/>
				<path style="fill:#FFFFFF;" d="M688.262,422.562c0,0.658,0.534,1.192,1.192,1.192c0.658,0,1.192-0.534,1.192-1.192
					c0-0.658-0.534-1.192-1.192-1.192C688.796,421.37,688.262,421.904,688.262,422.562z"/>
				<path style="fill:#FFFFFF;" d="M688.262,427.661c0,0.658,0.534,1.192,1.192,1.192c0.658,0,1.192-0.534,1.192-1.192
					s-0.534-1.192-1.192-1.192C688.796,426.469,688.262,427.003,688.262,427.661z"/>
				
					<rect x="679.813" y="421.37" transform="matrix(-1 -1.224647e-16 1.224647e-16 -1 1363.3104 853.8246)" style="fill:#455A64;" width="3.685" height="11.085"/>
				
					<rect x="674.489" y="421.37" transform="matrix(-1 -1.224647e-16 1.224647e-16 -1 1352.6638 853.8246)" style="fill:#455A64;" width="3.685" height="11.085"/>
				
					<rect x="669.166" y="421.37" transform="matrix(-1 -1.224647e-16 1.224647e-16 -1 1342.0171 853.8246)" style="fill:#455A64;" width="3.685" height="11.085"/>
				
					<rect x="663.842" y="421.37" transform="matrix(-1 -1.224647e-16 1.224647e-16 -1 1331.3704 853.8246)" style="fill:#455A64;" width="3.685" height="11.085"/>
				
					<rect x="658.519" y="421.37" transform="matrix(-1 -1.224647e-16 1.224647e-16 -1 1320.7238 853.8246)" style="fill:#455A64;" width="3.685" height="11.085"/>
				
					<rect x="653.196" y="421.37" transform="matrix(-1 -1.224647e-16 1.224647e-16 -1 1310.077 853.8246)" style="fill:#455A64;" width="3.685" height="11.085"/>
				
					<rect x="647.873" y="421.37" transform="matrix(-1 -1.224647e-16 1.224647e-16 -1 1299.4305 853.8246)" style="fill:#455A64;" width="3.685" height="11.085"/>
				
					<rect x="642.549" y="421.37" transform="matrix(-1 -1.224647e-16 1.224647e-16 -1 1288.7838 853.8246)" style="fill:#455A64;" width="3.685" height="11.085"/>
				
					<rect x="637.226" y="421.37" transform="matrix(-1 -1.224647e-16 1.224647e-16 -1 1278.1372 853.8246)" style="fill:#455A64;" width="3.685" height="11.085"/>
				
					<rect x="631.903" y="421.37" transform="matrix(-1 -1.224647e-16 1.224647e-16 -1 1267.4905 853.8246)" style="fill:#455A64;" width="3.685" height="11.085"/>
			</g>
			<g>
				
					<rect x="631.325" y="387.54" transform="matrix(-1 -1.224647e-16 1.224647e-16 -1 1329.6254 793.9351)" style="fill:#263238;" width="66.975" height="18.855"/>
				
					<rect x="692.68" y="389.91" transform="matrix(-1 -1.224647e-16 1.224647e-16 -1 1389.1117 794.2512)" style="fill:#455A64;" width="3.751" height="14.431"/>
				<path style="fill:#FFFFFF;" d="M688.262,392.946c0,0.658,0.534,1.192,1.192,1.192c0.658,0,1.192-0.534,1.192-1.192
					c0-0.658-0.534-1.192-1.192-1.192C688.796,391.754,688.262,392.288,688.262,392.946z"/>
				<path style="fill:#FFFFFF;" d="M688.262,398.045c0,0.658,0.534,1.192,1.192,1.192c0.658,0,1.192-0.534,1.192-1.192
					c0-0.658-0.534-1.192-1.192-1.192C688.796,396.853,688.262,397.387,688.262,398.045z"/>
				
					<rect x="679.813" y="391.754" transform="matrix(-1 -1.224647e-16 1.224647e-16 -1 1363.3104 794.5926)" style="fill:#455A64;" width="3.685" height="11.085"/>
				
					<rect x="674.489" y="391.754" transform="matrix(-1 -1.224647e-16 1.224647e-16 -1 1352.6638 794.5926)" style="fill:#455A64;" width="3.685" height="11.085"/>
				
					<rect x="669.166" y="391.754" transform="matrix(-1 -1.224647e-16 1.224647e-16 -1 1342.0171 794.5926)" style="fill:#455A64;" width="3.685" height="11.085"/>
				
					<rect x="663.842" y="391.754" transform="matrix(-1 -1.224647e-16 1.224647e-16 -1 1331.3704 794.5926)" style="fill:#455A64;" width="3.685" height="11.085"/>
				
					<rect x="658.519" y="391.754" transform="matrix(-1 -1.224647e-16 1.224647e-16 -1 1320.7238 794.5926)" style="fill:#455A64;" width="3.685" height="11.085"/>
				
					<rect x="653.196" y="391.754" transform="matrix(-1 -1.224647e-16 1.224647e-16 -1 1310.077 794.5926)" style="fill:#455A64;" width="3.685" height="11.085"/>
				
					<rect x="647.873" y="391.754" transform="matrix(-1 -1.224647e-16 1.224647e-16 -1 1299.4305 794.5926)" style="fill:#455A64;" width="3.685" height="11.085"/>
				
					<rect x="642.549" y="391.754" transform="matrix(-1 -1.224647e-16 1.224647e-16 -1 1288.7838 794.5926)" style="fill:#455A64;" width="3.685" height="11.085"/>
				
					<rect x="637.226" y="391.754" transform="matrix(-1 -1.224647e-16 1.224647e-16 -1 1278.1372 794.5926)" style="fill:#455A64;" width="3.685" height="11.085"/>
				
					<rect x="631.903" y="391.754" transform="matrix(-1 -1.224647e-16 1.224647e-16 -1 1267.4905 794.5926)" style="fill:#455A64;" width="3.685" height="11.085"/>
			</g>
			<g>
				<path style="fill:#263238;" d="M656.881,244.197c0.014,0.001,0.04-0.199,0.067-0.582c0.027-0.383,0.048-0.948,0.066-1.675
					c0.019-0.727,0.031-1.617,0.08-2.645c0.061-1.025,0.128-2.206,0.458-3.441c0.354-1.23,0.913-2.548,1.789-3.772
					c0.866-1.226,2.104-2.323,3.672-2.953c1.561-0.65,3.353-0.892,5.206-1.058c1.864-0.161,3.792-0.329,5.768-0.499
					c7.906-0.686,15.075-1.124,20.271-1.218c2.598-0.056,4.701-0.039,6.154-0.03c0.693,0.008,1.249,0.015,1.674,0.019
					c0.383,0,0.584-0.007,0.585-0.021c0.001-0.015-0.2-0.036-0.582-0.064c-0.425-0.025-0.981-0.058-1.673-0.099
					c-1.454-0.059-3.56-0.122-6.163-0.105c-5.206,0.017-12.393,0.408-20.303,1.094c-1.976,0.174-3.906,0.344-5.771,0.508
					c-1.862,0.173-3.696,0.425-5.319,1.111c-1.633,0.667-2.929,1.836-3.808,3.111c-0.894,1.277-1.447,2.629-1.792,3.898
					c-0.323,1.287-0.366,2.476-0.405,3.51c-0.026,1.036-0.015,1.926-0.008,2.653c0.006,0.693,0.01,1.249,0.014,1.674
					C656.863,243.995,656.866,244.197,656.881,244.197z"/>
			</g>
			<g>
				<path style="fill:#263238;" d="M677.198,244.197c0.015,0,0.028-0.189,0.039-0.55c0.004-0.404,0.01-0.927,0.017-1.576
					c0.005-0.683,0.004-1.52,0.078-2.483c0.09-0.952,0.239-2.067,0.823-3.107c0.584-1.034,1.729-1.804,3.027-2.329
					c1.308-0.512,2.854-0.717,4.412-0.449c0.775,0.135,1.559,0.383,2.278,0.774c0.712,0.395,1.381,0.945,1.77,1.675
					c0.408,0.723,0.42,1.625-0.006,2.367c-0.414,0.737-1.163,1.316-2.008,1.51c-0.847,0.208-1.74-0.089-2.352-0.68
					c-0.618-0.585-0.994-1.413-1.055-2.238c-0.081-0.834,0.227-1.623,0.702-2.29c0.467-0.666,1.085-1.209,1.773-1.565
					c0.68-0.381,1.452-0.444,2.214-0.571c0.756-0.112,1.491-0.211,2.203-0.29c1.425-0.16,2.758-0.252,3.977-0.301
					c2.439-0.095,4.419-0.057,5.787-0.056c0.649-0.001,1.172-0.001,1.576-0.002c0.36-0.005,0.55-0.015,0.55-0.029
					c0-0.015-0.188-0.034-0.548-0.057c-0.404-0.02-0.926-0.046-1.574-0.078c-1.367-0.052-3.348-0.136-5.801-0.079
					c-1.226,0.031-2.569,0.105-4.005,0.251c-0.718,0.072-1.459,0.165-2.22,0.271c-0.382,0.061-0.761,0.108-1.161,0.182
					c-0.406,0.079-0.803,0.219-1.178,0.41c-0.75,0.383-1.417,0.963-1.926,1.68c-0.51,0.699-0.877,1.616-0.785,2.556
					c0.068,0.928,0.478,1.845,1.18,2.513c0.687,0.675,1.752,1.032,2.737,0.788c0.976-0.227,1.808-0.874,2.285-1.72
					c0.496-0.845,0.476-1.957,0.004-2.768c-0.449-0.831-1.182-1.417-1.943-1.835c-0.772-0.414-1.592-0.667-2.408-0.804
					c-1.637-0.27-3.248-0.041-4.608,0.508c-1.341,0.558-2.539,1.38-3.159,2.509c-0.604,1.121-0.728,2.27-0.799,3.239
					c-0.053,0.978-0.027,1.817-0.006,2.502c0.026,0.648,0.047,1.171,0.063,1.575C677.168,244.008,677.184,244.197,677.198,244.197z"
					/>
			</g>
			<g>
				<path style="fill:#263238;" d="M651.414,244.197c0.015,0.002,0.061-0.213,0.135-0.624c0.072-0.411,0.187-1.016,0.352-1.79
					c0.337-1.544,0.869-3.787,1.972-6.388c1.092-2.581,2.835-5.582,5.828-7.824c1.459-1.141,3.343-1.766,5.343-2.035
					c2-0.29,4.117-0.276,6.28-0.337c8.655-0.163,16.5-0.129,22.175-0.35c2.838-0.098,5.132-0.231,6.715-0.343
					c0.759-0.063,1.365-0.113,1.822-0.151c0.416-0.04,0.634-0.068,0.633-0.083c-0.001-0.015-0.221-0.015-0.639-0.003
					c-0.458,0.018-1.065,0.042-1.826,0.072c-1.585,0.061-3.879,0.148-6.714,0.207c-5.671,0.143-13.51,0.062-22.176,0.225
					c-2.161,0.061-4.286,0.049-6.331,0.35c-2.033,0.276-4.011,0.939-5.519,2.134c-1.496,1.169-2.75,2.493-3.685,3.897
					c-0.946,1.395-1.642,2.806-2.184,4.124c-1.079,2.645-1.568,4.912-1.857,6.473c-0.141,0.782-0.229,1.394-0.275,1.81
					C651.417,243.977,651.4,244.195,651.414,244.197z"/>
			</g>
			
				<rect x="632.246" y="208.497" transform="matrix(-1 -1.224647e-16 1.224647e-16 -1 1329.6254 426.4492)" style="fill:#263238;" width="65.133" height="9.455"/>
			
				<rect x="647.594" y="213.225" transform="matrix(-1 -1.224647e-16 1.224647e-16 -1 1330.6478 431.1766)" style="fill:#455A64;" width="35.461" height="4.727"/>
			<g>
				<g>
					<path style="fill:#263238;" d="M605.674,404.592c-0.007,0.046,0.718,0.118,1.969,0.481c1.242,0.374,3.02,1.07,4.92,2.411
						c0.943,0.672,1.913,1.51,2.763,2.567c0.434,0.521,0.807,1.116,1.134,1.752c0.297,0.645,0.528,1.358,0.711,2.1
						c0.744,2.987,0.519,6.407,0.371,9.971c-0.149,3.558,0.085,7.105,1.492,9.955c0.67,1.422,1.612,2.628,2.658,3.554
						c1.052,0.921,2.181,1.592,3.262,2.07c1.084,0.479,2.125,0.758,3.051,0.913c0.931,0.13,1.742,0.157,2.401,0.102
						c0.657-0.053,1.164-0.139,1.497-0.236c0.335-0.087,0.508-0.14,0.505-0.154c-0.011-0.051-0.711,0.17-2.01,0.225
						c-0.649,0.03-1.444-0.022-2.352-0.171c-0.904-0.173-1.916-0.467-2.967-0.952c-1.048-0.485-2.14-1.154-3.151-2.059
						c-1.003-0.91-1.897-2.074-2.539-3.46c-1.343-2.767-1.569-6.231-1.421-9.772c0.145-3.547,0.368-7.02-0.416-10.08
						c-0.194-0.759-0.432-1.486-0.755-2.17c-0.348-0.664-0.743-1.277-1.196-1.81c-0.889-1.081-1.892-1.922-2.864-2.591
						c-1.957-1.334-3.779-1.995-5.049-2.324c-0.64-0.155-1.142-0.252-1.487-0.283C605.856,404.591,605.676,404.577,605.674,404.592z
						"/>
				</g>
				
					<rect x="630.349" y="437.155" transform="matrix(-1 -1.224647e-16 1.224647e-16 -1 1266.0454 880.8145)" style="fill:#263238;" width="5.348" height="6.504"/>
				<g>
					
						<rect x="575.691" y="388.166" transform="matrix(-1 -1.224647e-16 1.224647e-16 -1 1181.3652 809.184)" style="fill:#455A64;" width="29.983" height="32.851"/>
					
						<ellipse transform="matrix(0.3804 -0.9248 0.9248 0.3804 -8.3045 797.0475)" style="fill:#263238;" cx="590.683" cy="404.721" rx="9.869" ry="9.869"/>
					<path style="fill:#455A64;" d="M585.748,404.721c0,2.725,2.209,4.935,4.935,4.935c2.725,0,4.934-2.209,4.934-4.935
						c0-2.725-2.209-4.935-4.934-4.935C587.957,399.787,585.748,401.996,585.748,404.721z"/>
					<path style="fill:#263238;" d="M600.702,393.265c0,0.506,0.41,0.917,0.917,0.917c0.506,0,0.917-0.41,0.917-0.917
						c0-0.506-0.41-0.917-0.917-0.917C601.112,392.349,600.702,392.759,600.702,393.265z"/>
					<circle style="fill:#263238;" cx="580.277" cy="393.265" r="0.917"/>
					<circle style="fill:#263238;" cx="580.081" cy="417.525" r="0.917"/>
					<path style="fill:#263238;" d="M600.702,417.901c0,0.506,0.41,0.917,0.917,0.917c0.506,0,0.917-0.41,0.917-0.917
						c0-0.506-0.41-0.917-0.917-0.917C601.112,416.984,600.702,417.395,600.702,417.901z"/>
					
						<rect x="573.272" y="388.166" transform="matrix(-1 -1.224647e-16 1.224647e-16 -1 1148.963 809.184)" style="fill:#263238;" width="2.419" height="32.851"/>
				</g>
			</g>
		</g>
	</g>
</g>
<g id="Device">
	<g>
		<g>
			<g>
				<g>
					<g>
						<g>
							<g>
								<path style="fill:#455A64;" d="M545.947,445.229H145.729c-8.045,0-14.567-6.522-14.567-14.567V169.053
									c0-4.281,3.47-7.751,7.751-7.751h414.862c3.722,0,6.74,3.018,6.74,6.74v262.619
									C560.515,438.707,553.993,445.229,545.947,445.229z"/>
							</g>
						</g>
					</g>
				</g>
				<g>
					<g>
						<g>
							<g>
								<path style="fill:#455A64;" d="M564.656,449.073H126.928c-7.578,0-13.721-6.143-13.721-13.721V424.23h465.171v11.121
									C578.378,442.93,572.235,449.073,564.656,449.073z"/>
							</g>
						</g>
					</g>
				</g>
				<g>
					<g>
						<g>
							<g>
								<rect x="142.686" y="172.583" style="fill:#E0E0E0;" width="405.102" height="239.771"/>
							</g>
						</g>
					</g>
				</g>
				<g>
					<g>
						<g>
							<g>
								<polygon style="fill:#263238;" points="303.513,424.23 309.285,433.412 390.509,433.412 395.87,424.23 								"/>
							</g>
						</g>
					</g>
				</g>
			</g>
			<g>
				<g>
					<g>
						<rect x="154.706" y="186.475" style="fill:#263238;" width="382.041" height="225.88"/>
					</g>
				</g>
				<g>
					<g>
						<g>
							<path style="fill:#E0E0E0;" d="M184.018,405.726c-0.198,0-0.358-48.108-0.358-107.439c0-59.352,0.161-107.45,0.358-107.45
								c0.198,0,0.358,48.098,0.358,107.45C184.376,357.617,184.215,405.726,184.018,405.726z"/>
						</g>
					</g>
				</g>
				<g>
					<g>
						<g>
							<path style="fill:#E0E0E0;" d="M176.311,210.315c0,0.198-2.779,0.358-6.206,0.358c-3.428,0-6.206-0.16-6.206-0.358
								c0-0.198,2.778-0.358,6.206-0.358C173.533,209.957,176.311,210.117,176.311,210.315z"/>
						</g>
					</g>
				</g>
				<g>
					<g>
						<g>
							<path style="fill:#E0E0E0;" d="M176.789,198.122c0,0.198-2.779,0.358-6.206,0.358c-3.428,0-6.206-0.16-6.206-0.358
								c0-0.198,2.778-0.358,6.206-0.358C174.01,197.764,176.789,197.924,176.789,198.122z"/>
						</g>
					</g>
				</g>
				<g>
					<g>
						<g>
							<path style="fill:#E0E0E0;" d="M176.311,223.458c0,0.198-2.779,0.359-6.206,0.359c-3.428,0-6.206-0.161-6.206-0.359
								c0-0.198,2.778-0.358,6.206-0.358C173.533,223.1,176.311,223.26,176.311,223.458z"/>
						</g>
					</g>
				</g>
				<g>
					<g>
						<g>
							<path style="fill:#E0E0E0;" d="M176.311,236.601c0,0.198-2.779,0.359-6.206,0.359c-3.428,0-6.206-0.16-6.206-0.359
								c0-0.198,2.778-0.358,6.206-0.358C173.533,236.243,176.311,236.404,176.311,236.601z"/>
						</g>
					</g>
				</g>
				<g>
					<g>
						<g>
							<path style="fill:#E0E0E0;" d="M176.311,249.744c0,0.198-2.779,0.358-6.206,0.358c-3.428,0-6.206-0.16-6.206-0.358
								c0-0.198,2.778-0.358,6.206-0.358C173.533,249.386,176.311,249.546,176.311,249.744z"/>
						</g>
					</g>
				</g>
				<g>
					<g>
						<g>
							<path style="fill:#E0E0E0;" d="M176.311,262.887c0,0.198-2.779,0.358-6.206,0.358c-3.428,0-6.206-0.16-6.206-0.358
								c0-0.198,2.778-0.358,6.206-0.358C173.533,262.529,176.311,262.69,176.311,262.887z"/>
						</g>
					</g>
				</g>
				<g>
					<g>
						<g>
							<path style="fill:#E0E0E0;" d="M176.311,276.03c0,0.198-2.779,0.358-6.206,0.358c-3.428,0-6.206-0.16-6.206-0.358
								c0-0.198,2.778-0.358,6.206-0.358C173.533,275.672,176.311,275.833,176.311,276.03z"/>
						</g>
					</g>
				</g>
				<g>
					<g>
						<g>
							<path style="fill:#E0E0E0;" d="M176.311,289.173c0,0.198-2.779,0.358-6.206,0.358c-3.428,0-6.206-0.16-6.206-0.358
								c0-0.198,2.778-0.358,6.206-0.358C173.533,288.815,176.311,288.975,176.311,289.173z"/>
						</g>
					</g>
				</g>
				<g>
					<g>
						<g>
							<path style="fill:#E0E0E0;" d="M176.311,302.316c0,0.198-2.779,0.358-6.206,0.358c-3.428,0-6.206-0.16-6.206-0.358
								c0-0.198,2.778-0.358,6.206-0.358C173.533,301.958,176.311,302.119,176.311,302.316z"/>
						</g>
					</g>
				</g>
				<g>
					<g>
						<g>
							<path style="fill:#E0E0E0;" d="M176.311,315.459c0,0.198-2.779,0.358-6.206,0.358c-3.428,0-6.206-0.16-6.206-0.358
								c0-0.198,2.778-0.358,6.206-0.358C173.533,315.101,176.311,315.262,176.311,315.459z"/>
						</g>
					</g>
				</g>
				<g>
					<g>
						<g>
							<path style="fill:#E0E0E0;" d="M176.311,328.603c0,0.198-2.779,0.358-6.206,0.358c-3.428,0-6.206-0.16-6.206-0.358
								c0-0.198,2.778-0.359,6.206-0.359C173.533,328.244,176.311,328.405,176.311,328.603z"/>
						</g>
					</g>
				</g>
				<g>
					<g>
						<g>
							<path style="fill:#E0E0E0;" d="M176.311,341.746c0,0.198-2.779,0.358-6.206,0.358c-3.428,0-6.206-0.16-6.206-0.358
								c0-0.198,2.778-0.358,6.206-0.358C173.533,341.387,176.311,341.547,176.311,341.746z"/>
						</g>
					</g>
				</g>
				<g>
					<g>
						<g>
							<path style="fill:#E0E0E0;" d="M176.311,354.888c0,0.198-2.779,0.358-6.206,0.358c-3.428,0-6.206-0.16-6.206-0.358
								c0-0.198,2.778-0.358,6.206-0.358C173.533,354.53,176.311,354.691,176.311,354.888z"/>
						</g>
					</g>
				</g>
				<g>
					<g>
						<g>
							<path style="fill:#E0E0E0;" d="M176.311,368.031c0,0.198-2.779,0.358-6.206,0.358c-3.428,0-6.206-0.16-6.206-0.358
								c0-0.198,2.778-0.358,6.206-0.358C173.533,367.673,176.311,367.834,176.311,368.031z"/>
						</g>
					</g>
				</g>
				<g>
					<g>
						<g>
							<path style="fill:#E0E0E0;" d="M176.311,381.174c0,0.198-2.779,0.358-6.206,0.358c-3.428,0-6.206-0.16-6.206-0.358
								s2.778-0.358,6.206-0.358C173.533,380.816,176.311,380.977,176.311,381.174z"/>
						</g>
					</g>
				</g>
				<g>
					<g>
						<g>
							<path style="fill:#E0E0E0;" d="M176.311,394.317c0,0.198-2.779,0.359-6.206,0.359c-3.428,0-6.206-0.16-6.206-0.359
								c0-0.198,2.778-0.358,6.206-0.358C173.533,393.959,176.311,394.12,176.311,394.317z"/>
						</g>
					</g>
				</g>
				<g>
					<g>
						<g>
							<path style="fill:#FF725E;" d="M226.059,394.317c0,0.198-7.211,0.359-16.105,0.359c-8.897,0-16.106-0.16-16.106-0.359
								c0-0.198,7.21-0.358,16.106-0.358C218.848,393.959,226.059,394.12,226.059,394.317z"/>
						</g>
					</g>
				</g>
				<g>
					<g>
						<g>
							<path style="fill:#FF725E;" d="M237.195,208.348c0,0.198-7.211,0.359-16.105,0.359c-8.897,0-16.106-0.161-16.106-0.359
								c0-0.198,7.21-0.358,16.106-0.358C229.983,207.989,237.195,208.15,237.195,208.348z"/>
						</g>
					</g>
				</g>
				<g>
					<g>
						<g>
							<path style="fill:#FF725E;" d="M270.917,236.601c0,0.198-13.492,0.359-30.132,0.359c-16.646,0-30.135-0.16-30.135-0.359
								c0-0.198,13.489-0.358,30.135-0.358C257.425,236.243,270.917,236.404,270.917,236.601z"/>
						</g>
					</g>
				</g>
				<g>
					<g>
						<g>
							<path style="fill:#E0E0E0;" d="M340.604,236.601c0,0.198-13.492,0.359-30.132,0.359c-16.646,0-30.135-0.16-30.135-0.359
								c0-0.198,13.489-0.358,30.135-0.358C327.112,236.243,340.604,236.404,340.604,236.601z"/>
						</g>
					</g>
				</g>
				<g>
					<g>
						<g>
							<path style="fill:#E0E0E0;" d="M313.971,249.744c0,0.198-19.884,0.358-44.406,0.358c-24.531,0-44.411-0.16-44.411-0.358
								c0-0.198,19.88-0.358,44.411-0.358C294.087,249.386,313.971,249.546,313.971,249.744z"/>
						</g>
					</g>
				</g>
				<g>
					<g>
						<g>
							<path style="fill:#E0E0E0;" d="M313.971,262.887c0,0.198-19.884,0.358-44.406,0.358c-24.531,0-44.411-0.16-44.411-0.358
								c0-0.198,19.88-0.358,44.411-0.358C294.087,262.529,313.971,262.69,313.971,262.887z"/>
						</g>
					</g>
				</g>
				<g>
					<g>
						<g>
							<path style="fill:#E0E0E0;" d="M375.107,302.316c0,0.198-19.884,0.358-44.406,0.358c-24.531,0-44.411-0.16-44.411-0.358
								c0-0.198,19.88-0.358,44.411-0.358C355.223,301.958,375.107,302.119,375.107,302.316z"/>
						</g>
					</g>
				</g>
				<g>
					<g>
						<g>
							<path style="fill:#E0E0E0;" d="M348.725,276.03c0,0.198-19.884,0.358-44.406,0.358c-24.531,0-44.411-0.16-44.411-0.358
								c0-0.198,19.88-0.358,44.411-0.358C328.841,275.672,348.725,275.833,348.725,276.03z"/>
						</g>
					</g>
				</g>
				<g>
					<g>
						<g>
							<path style="fill:#E0E0E0;" d="M457.261,276.03c0,0.198-19.884,0.358-44.406,0.358c-24.531,0-44.411-0.16-44.411-0.358
								c0-0.198,19.88-0.358,44.411-0.358C437.377,275.672,457.261,275.833,457.261,276.03z"/>
						</g>
					</g>
				</g>
				<g>
					<g>
						<g>
							<path style="fill:#FAFAFA;" d="M419.516,249.744c0,0.198-19.884,0.358-44.406,0.358c-24.531,0-44.411-0.16-44.411-0.358
								c0-0.198,19.88-0.358,44.411-0.358C399.632,249.386,419.516,249.546,419.516,249.744z"/>
						</g>
					</g>
				</g>
				<g>
					<g>
						<g>
							<path style="fill:#FAFAFA;" d="M480.867,302.316c0,0.198-19.884,0.358-44.406,0.358c-24.531,0-44.411-0.16-44.411-0.358
								c0-0.198,19.88-0.358,44.411-0.358C460.983,301.958,480.867,302.119,480.867,302.316z"/>
						</g>
					</g>
				</g>
				<g>
					<g>
						<g>
							<path style="fill:#455A64;" d="M468.615,262.887c0,0.198-30.876,0.358-68.955,0.358c-38.092,0-68.962-0.16-68.962-0.358
								c0-0.198,30.87-0.358,68.962-0.358C437.739,262.529,468.615,262.69,468.615,262.887z"/>
						</g>
					</g>
				</g>
				<g>
					<g>
						<g>
							<path style="fill:#FAFAFA;" d="M226.059,381.174c0,0.198-7.211,0.358-16.105,0.358c-8.897,0-16.106-0.16-16.106-0.358
								s7.21-0.358,16.106-0.358C218.848,380.816,226.059,380.977,226.059,381.174z"/>
						</g>
					</g>
				</g>
				<g>
					<g>
						<g>
							<path style="fill:#FAFAFA;" d="M242.017,276.03c0,0.198-7.211,0.358-16.105,0.358c-8.897,0-16.106-0.16-16.106-0.358
								c0-0.198,7.21-0.358,16.106-0.358C234.805,275.672,242.017,275.833,242.017,276.03z"/>
						</g>
					</g>
				</g>
				<g>
					<g>
						<g>
							<path style="fill:#FF725E;" d="M500.174,276.03c0,0.198-7.211,0.358-16.105,0.358c-8.897,0-16.106-0.16-16.106-0.358
								c0-0.198,7.21-0.358,16.106-0.358C492.963,275.672,500.174,275.833,500.174,276.03z"/>
						</g>
					</g>
				</g>
				<g>
					<g>
						<g>
							<path style="fill:#FF725E;" d="M270.917,328.525c0,0.198-13.492,0.358-30.132,0.358c-16.646,0-30.135-0.16-30.135-0.358
								c0-0.198,13.489-0.359,30.135-0.359C257.425,328.167,270.917,328.327,270.917,328.525z"/>
						</g>
					</g>
				</g>
				<g>
					<g>
						<g>
							<path style="fill:#E0E0E0;" d="M340.604,328.525c0,0.198-13.492,0.358-30.132,0.358c-16.646,0-30.135-0.16-30.135-0.358
								c0-0.198,13.489-0.359,30.135-0.359C327.112,328.167,340.604,328.327,340.604,328.525z"/>
						</g>
					</g>
				</g>
				<g>
					<g>
						<g>
							<path style="fill:#E0E0E0;" d="M313.971,341.668c0,0.198-19.884,0.359-44.406,0.359c-24.531,0-44.411-0.16-44.411-0.359
								c0-0.198,19.88-0.358,44.411-0.358C294.087,341.31,313.971,341.47,313.971,341.668z"/>
						</g>
					</g>
				</g>
				<g>
					<g>
						<g>
							<path style="fill:#E0E0E0;" d="M313.971,354.811c0,0.198-19.884,0.358-44.406,0.358c-24.531,0-44.411-0.16-44.411-0.358
								c0-0.198,19.88-0.358,44.411-0.358C294.087,354.453,313.971,354.613,313.971,354.811z"/>
						</g>
					</g>
				</g>
				<g>
					<g>
						<g>
							<path style="fill:#E0E0E0;" d="M348.725,367.954c0,0.198-19.884,0.358-44.406,0.358c-24.531,0-44.411-0.16-44.411-0.358
								c0-0.198,19.88-0.358,44.411-0.358C328.841,367.596,348.725,367.756,348.725,367.954z"/>
						</g>
					</g>
				</g>
				<g>
					<g>
						<g>
							<path style="fill:#E0E0E0;" d="M457.261,367.954c0,0.198-19.884,0.358-44.406,0.358c-24.531,0-44.411-0.16-44.411-0.358
								c0-0.198,19.88-0.358,44.411-0.358C437.377,367.596,457.261,367.756,457.261,367.954z"/>
						</g>
					</g>
				</g>
				<g>
					<g>
						<g>
							<path style="fill:#E0E0E0;" d="M329.921,380.842c0,0.198-19.884,0.358-44.406,0.358c-24.531,0-44.411-0.16-44.411-0.358
								c0-0.198,19.88-0.358,44.411-0.358C310.038,380.484,329.921,380.644,329.921,380.842z"/>
						</g>
					</g>
				</g>
				<g>
					<g>
						<g>
							<path style="fill:#E0E0E0;" d="M299.185,220.029c0,0.198-19.884,0.359-44.406,0.359c-24.531,0-44.411-0.16-44.411-0.359
								c0-0.198,19.88-0.358,44.411-0.358C279.301,219.671,299.185,219.832,299.185,220.029z"/>
						</g>
					</g>
				</g>
				<g>
					<g>
						<g>
							<path style="fill:#FAFAFA;" d="M419.516,341.668c0,0.198-19.884,0.359-44.406,0.359c-24.531,0-44.411-0.16-44.411-0.359
								c0-0.198,19.88-0.358,44.411-0.358C399.632,341.31,419.516,341.47,419.516,341.668z"/>
						</g>
					</g>
				</g>
				<g>
					<g>
						<g>
							<path style="fill:#455A64;" d="M468.615,354.811c0,0.198-30.876,0.358-68.955,0.358c-38.092,0-68.962-0.16-68.962-0.358
								c0-0.198,30.87-0.358,68.962-0.358C437.739,354.453,468.615,354.613,468.615,354.811z"/>
						</g>
					</g>
				</g>
				<g>
					<g>
						<g>
							<path style="fill:#FAFAFA;" d="M242.017,367.954c0,0.198-7.211,0.358-16.105,0.358c-8.897,0-16.106-0.16-16.106-0.358
								c0-0.198,7.21-0.358,16.106-0.358C234.805,367.596,242.017,367.756,242.017,367.954z"/>
						</g>
					</g>
				</g>
				<g>
					<g>
						<g>
							<path style="fill:#FF725E;" d="M500.174,367.954c0,0.198-7.211,0.358-16.105,0.358c-8.897,0-16.106-0.16-16.106-0.358
								c0-0.198,7.21-0.358,16.106-0.358C492.963,367.596,500.174,367.756,500.174,367.954z"/>
						</g>
					</g>
				</g>
			</g>
		</g>
	</g>
</g>
<g id="Window">
	<g>
		<g>
			<g>
				<path style="fill:#263238;" d="M377.931,123.524c0,0-0.018-0.328-0.027-0.968c-0.006-0.653-0.015-1.601-0.026-2.84
					c-0.007-1.253-0.015-2.797-0.025-4.619c-0.02-0.911,0.085-1.929,0.495-2.916c0.423-0.973,1.09-1.941,2.057-2.665
					c0.948-0.737,2.178-1.244,3.516-1.331c1.33-0.048,2.7-0.02,4.146-0.033c2.886-0.007,6.021-0.014,9.388-0.021
					c6.738-0.011,14.409-0.024,22.887-0.039c33.927-0.02,80.777-0.046,132.52-0.076c25.883,0.007,50.538,0.014,72.965,0.021
					c5.606,0.004,11.073,0.007,16.385,0.011c0.664,0.001,1.326,0.001,1.985,0.002c0.648,0.006,1.337-0.02,2.004,0.118
					c1.335,0.245,2.566,0.916,3.506,1.86c0.932,0.953,1.572,2.172,1.806,3.464c0.13,0.645,0.111,1.308,0.114,1.926
					c0,0.628-0.001,1.254-0.002,1.878c-0.011,9.971-0.022,19.259-0.032,27.739c-0.035,16.951-0.063,30.669-0.083,40.165
					c-0.021,4.733-0.038,8.411-0.049,10.92c-0.011,1.239-0.02,2.187-0.026,2.84c-0.009,0.64-0.027,0.967-0.027,0.967
					s-0.018-0.328-0.027-0.967c-0.006-0.653-0.014-1.601-0.026-2.84c-0.011-2.509-0.028-6.187-0.049-10.92
					c-0.02-9.496-0.048-23.215-0.083-40.165c-0.01-8.48-0.02-17.768-0.032-27.739c-0.001-0.623-0.001-1.249-0.002-1.878
					c-0.004-0.636,0.013-1.245-0.11-1.847c-0.22-1.205-0.819-2.342-1.691-3.23c-0.88-0.88-2.028-1.503-3.272-1.729
					c-0.619-0.128-1.255-0.103-1.922-0.108c-0.659,0-1.321,0.001-1.985,0.001c-5.312,0.004-10.779,0.007-16.385,0.011
					c-22.426,0.006-47.082,0.013-72.965,0.021c-51.744-0.03-98.593-0.057-132.52-0.076c-8.478-0.014-16.148-0.027-22.887-0.038
					c-3.368-0.008-6.502-0.015-9.388-0.021c-1.439,0.006-2.831-0.029-4.131,0.01c-1.292,0.076-2.484,0.558-3.408,1.267
					c-0.943,0.694-1.597,1.631-2.015,2.573c-0.406,0.961-0.517,1.937-0.506,2.846c-0.01,1.822-0.018,3.366-0.025,4.619
					c-0.011,1.24-0.02,2.188-0.026,2.84C377.949,123.196,377.931,123.524,377.931,123.524z"/>
			</g>
			<path style="fill:#263238;" d="M653.977,199.928c0,1.418-1.15,2.568-2.568,2.568c-1.418,0-2.568-1.15-2.568-2.568
				c0-1.418,1.15-2.568,2.568-2.568C652.828,197.36,653.977,198.51,653.977,199.928z"/>
			<path style="fill:#263238;" d="M380.499,123.524c0,1.418-1.15,2.568-2.568,2.568c-1.418,0-2.568-1.15-2.568-2.568
				c0-1.418,1.15-2.568,2.568-2.568C379.349,120.956,380.499,122.106,380.499,123.524z"/>
		</g>
		<g>
			<g>
				<polygon style="fill:#FAFAFA;" points="245.513,134.426 245.513,354.218 443.034,354.218 467.602,354.218 609.62,354.218 
					609.62,134.426 				"/>
				<rect x="245.513" y="134.426" style="fill:#E0E0E0;" width="364.107" height="16.245"/>
				<circle style="fill:#263238;" cx="254.85" cy="142.836" r="2.111"/>
				<path style="fill:#263238;" d="M264.812,142.836c0,1.166-0.945,2.11-2.111,2.11c-1.165,0-2.11-0.945-2.11-2.11
					c0-1.166,0.945-2.111,2.11-2.111C263.867,140.725,264.812,141.67,264.812,142.836z"/>
				<circle style="fill:#263238;" cx="270.553" cy="142.836" r="2.11"/>
				<g>
					<path style="fill:#263238;" d="M422.002,169.401c0,0.121-7.43,0.22-16.594,0.22c-9.167,0-16.595-0.098-16.595-0.22
						s7.429-0.22,16.595-0.22C414.572,169.181,422.002,169.279,422.002,169.401z"/>
				</g>
				<g>
					<path style="fill:#FF725E;" d="M466.148,169.401c0,0.121-7.43,0.22-16.594,0.22c-9.167,0-16.595-0.098-16.595-0.22
						s7.429-0.22,16.595-0.22C458.718,169.181,466.148,169.279,466.148,169.401z"/>
				</g>
				<g>
					<path style="fill:#263238;" d="M510.294,169.401c0,0.121-7.43,0.22-16.594,0.22c-9.167,0-16.595-0.098-16.595-0.22
						s7.429-0.22,16.595-0.22C502.864,169.181,510.294,169.279,510.294,169.401z"/>
				</g>
				<g>
					<path style="fill:#263238;" d="M554.832,169.401c0,0.121-7.43,0.22-16.594,0.22c-9.167,0-16.595-0.098-16.595-0.22
						s7.429-0.22,16.595-0.22C547.402,169.181,554.832,169.279,554.832,169.401z"/>
				</g>
				<path style="fill:#263238;" d="M593.521,174.677c-0.001-0.026,0.281-0.014,0.792-0.133c0.499-0.127,1.258-0.421,1.909-1.171
					c0.319-0.371,0.611-0.849,0.759-1.428c0.17-0.572,0.118-1.232,0.118-1.951c-0.09-1.391,0.33-3.2-0.93-4.521
					c-0.572-0.643-1.424-1.097-2.362-1.164c-0.954-0.025-1.996,0.001-3.048-0.002c-2.118,0.006-4.378,0.013-6.756,0.02
					c-4.762,0.005-9.991,0.011-15.48,0.017c-1.302-0.009-2.536,0.77-3.101,1.899c-0.295,0.566-0.404,1.178-0.384,1.827
					c-0.001,0.658-0.001,1.312-0.002,1.959c0.008,0.657-0.047,1.288,0.122,1.857c0.147,0.582,0.466,1.105,0.869,1.53
					c0.411,0.42,0.924,0.729,1.472,0.901c0.55,0.176,1.125,0.156,1.73,0.157c4.751,0.018,9.032,0.034,12.643,0.047
					c3.57,0.029,6.472,0.053,8.524,0.07c0.978,0.017,1.751,0.031,2.317,0.041c0.243,0.009,0.441,0.016,0.603,0.022
					C593.451,174.662,593.521,174.67,593.521,174.677s-0.07,0.015-0.205,0.023c-0.162,0.006-0.36,0.013-0.603,0.022
					c-0.566,0.01-1.34,0.024-2.317,0.041c-2.051,0.017-4.953,0.041-8.524,0.07c-3.611,0.013-7.892,0.029-12.643,0.047
					c-0.579,0.001-1.23,0.029-1.851-0.167c-0.614-0.19-1.19-0.534-1.651-1.003c-0.454-0.473-0.813-1.06-0.98-1.712
					c-0.098-0.323-0.126-0.662-0.139-1c-0.001-0.321-0.001-0.644-0.002-0.968c-0.001-0.647-0.001-1.301-0.002-1.959
					c-0.024-0.667,0.098-1.401,0.429-2.026c0.633-1.271,2.025-2.151,3.49-2.14c5.49,0.006,10.718,0.012,15.48,0.017
					c2.377,0.007,4.638,0.014,6.756,0.02c1.064,0.011,2.066-0.007,3.075,0.028c1.028,0.083,1.954,0.591,2.567,1.296
					c0.618,0.705,0.945,1.593,0.955,2.434c-0.004,0.811-0.008,1.576-0.011,2.294c-0.012,0.705,0.031,1.396-0.162,2.008
					c-0.169,0.609-0.488,1.105-0.833,1.485c-0.702,0.767-1.501,1.042-2.017,1.144C593.802,174.725,593.521,174.677,593.521,174.677z
					"/>
				<path style="fill:#E0E0E0;" d="M320.478,177.299h-38.771c-3.81,0-6.898-3.088-6.898-6.898v0c0-3.81,3.088-6.898,6.898-6.898
					h38.771c3.81,0,6.898,3.088,6.898,6.898v0C327.376,174.211,324.288,177.299,320.478,177.299z"/>
				<g>
					<g>
						<g>
							<g>
								<g>
									<g>
										<rect x="276.405" y="209.267" style="fill:#FF725E;" width="77.442" height="74.924"/>
									</g>
								</g>
							</g>
						</g>
						<g style="opacity:0.3;">
							<g>
								<g>
									<g>
										<polygon points="282.409,277.778 303.832,239.223 321.355,263.866 332.002,250.779 347.842,277.778 										"/>
									</g>
								</g>
							</g>
						</g>
						<g style="opacity:0.3;">
							<g>
								<g>
									<g>
										<path d="M328.819,231.724c0,3.078-2.495,5.573-5.573,5.573c-3.078,0-5.573-2.495-5.573-5.573
											c0-3.078,2.495-5.573,5.573-5.573C326.324,226.151,328.819,228.646,328.819,231.724z"/>
									</g>
								</g>
							</g>
						</g>
						<path style="opacity:0.3;" d="M347.842,215.154c-18.951-0.015-41.415-0.033-65.427-0.052c0.072-0.082-0.705,0.703-0.376,0.38
							v0.017v0.033v0.067v0.134V216v0.534l0.001,1.067v2.128c0,1.416,0,2.826,0.001,4.23c0,2.807,0.001,5.589,0.002,8.342
							c0.003,5.506,0.007,10.897,0.01,16.145c0.012,10.493,0.024,20.414,0.035,29.539v0.323l0.321-0.001
							c19.615-0.067,35.998-0.123,47.516-0.163c5.687-0.036,10.171-0.065,13.271-0.084c1.496-0.016,2.656-0.029,3.478-0.037
							c0.369-0.008,0.656-0.014,0.882-0.018c0.196-0.006,0.293-0.012,0.286-0.018c-0.006-0.006-0.114-0.012-0.323-0.018
							c-0.234-0.005-0.534-0.01-0.917-0.018c-0.836-0.009-2.017-0.022-3.54-0.038c-3.116-0.02-7.625-0.048-13.344-0.084
							c-11.405-0.039-27.602-0.095-46.988-0.163c0.011-9.038,0.023-18.848,0.035-29.219c0.003-5.248,0.006-10.639,0.009-16.145
							c0.001-2.753,0.002-5.535,0.002-8.342c0-1.404,0.001-2.814,0.001-4.23v-2.128v-1.067V216v-0.16
							c23.743-0.019,45.96-0.037,64.749-0.052c0.067,18.57,0.122,34.041,0.161,44.922c0.035,5.456,0.063,9.753,0.082,12.724
							c0.016,1.449,0.028,2.574,0.037,3.372c0.007,0.363,0.014,0.649,0.017,0.873c0.006,0.198,0.012,0.301,0.018,0.307
							c0.007,0.006,0.012-0.086,0.018-0.272c0.005-0.216,0.011-0.49,0.018-0.84c0.008-0.783,0.02-1.887,0.036-3.311
							c0.019-2.954,0.047-7.227,0.082-12.653c0.039-10.993,0.095-26.646,0.162-45.44l0.001-0.317L347.842,215.154z"/>
					</g>
					<g>
						<path style="fill:#263238;" d="M344.139,295.696c0,0.144-13.02,0.26-29.078,0.26c-16.063,0-29.081-0.116-29.081-0.26
							c0-0.144,13.018-0.26,29.081-0.26C331.119,295.435,344.139,295.552,344.139,295.696z"/>
					</g>
					<g>
						<path style="fill:#263238;" d="M355.786,304.375c0,0.144-17.764,0.261-39.671,0.261c-21.915,0-39.675-0.117-39.675-0.261
							c0-0.144,17.76-0.26,39.675-0.26C338.022,304.115,355.786,304.231,355.786,304.375z"/>
					</g>
					<g>
						<path style="fill:#263238;" d="M355.786,312.776c0,0.144-17.764,0.26-39.671,0.26c-21.915,0-39.675-0.116-39.675-0.26
							c0-0.144,17.76-0.26,39.675-0.26C338.022,312.515,355.786,312.632,355.786,312.776z"/>
					</g>
					<g>
						<path style="fill:#263238;" d="M355.786,321.177c0,0.144-17.764,0.26-39.671,0.26c-21.915,0-39.675-0.116-39.675-0.26
							c0-0.144,17.76-0.26,39.675-0.26C338.022,320.917,355.786,321.033,355.786,321.177z"/>
					</g>
					<g>
						<path style="fill:#263238;" d="M309.185,329.578c0,0.144-7.331,0.26-16.372,0.26c-9.044,0-16.374-0.117-16.374-0.26
							s7.329-0.26,16.374-0.26C301.854,329.317,309.185,329.434,309.185,329.578z"/>
					</g>
				</g>
				<g>
					<g>
						<g>
							<g>
								<g>
									<g>
										<rect x="389.075" y="209.267" style="fill:#FF725E;" width="77.442" height="74.924"/>
									</g>
								</g>
							</g>
						</g>
						<g style="opacity:0.3;">
							<g>
								<g>
									<g>
										<polygon points="395.079,277.778 416.502,239.223 434.024,263.866 444.672,250.779 460.512,277.778 										"/>
									</g>
								</g>
							</g>
						</g>
						<g style="opacity:0.3;">
							<g>
								<g>
									<g>
										<path d="M441.489,231.724c0,3.078-2.495,5.573-5.573,5.573c-3.078,0-5.573-2.495-5.573-5.573
											c0-3.078,2.495-5.573,5.573-5.573C438.993,226.151,441.489,228.646,441.489,231.724z"/>
									</g>
								</g>
							</g>
						</g>
						<path style="opacity:0.3;" d="M460.512,215.154c-18.951-0.015-41.415-0.033-65.427-0.052c0.072-0.082-0.705,0.703-0.376,0.38
							v0.017v0.033v0.067v0.134V216v0.534l0.001,1.067v2.128c0,1.416,0,2.826,0.001,4.23c0,2.807,0.001,5.589,0.002,8.342
							c0.003,5.506,0.006,10.897,0.009,16.145c0.012,10.493,0.024,20.414,0.035,29.539v0.323l0.321-0.001
							c19.615-0.067,35.998-0.123,47.516-0.163c5.687-0.036,10.171-0.065,13.271-0.084c1.496-0.016,2.656-0.029,3.477-0.037
							c0.369-0.008,0.656-0.014,0.883-0.018c0.196-0.006,0.293-0.012,0.286-0.018c-0.006-0.006-0.114-0.012-0.322-0.018
							c-0.234-0.005-0.534-0.01-0.917-0.018c-0.836-0.009-2.017-0.022-3.54-0.038c-3.116-0.02-7.626-0.048-13.344-0.084
							c-11.405-0.039-27.602-0.095-46.988-0.163c0.011-9.038,0.023-18.848,0.035-29.219c0.003-5.248,0.006-10.639,0.009-16.145
							c0.001-2.753,0.002-5.535,0.002-8.342c0-1.404,0.001-2.814,0.001-4.23v-2.128v-1.067V216v-0.16
							c23.743-0.019,45.96-0.037,64.749-0.052c0.067,18.57,0.122,34.041,0.161,44.922c0.035,5.456,0.063,9.753,0.082,12.724
							c0.016,1.449,0.028,2.574,0.037,3.372c0.007,0.363,0.014,0.649,0.017,0.873c0.007,0.198,0.012,0.301,0.018,0.307
							c0.007,0.006,0.012-0.086,0.018-0.272c0.005-0.216,0.01-0.49,0.018-0.84c0.008-0.783,0.02-1.887,0.036-3.311
							c0.019-2.954,0.047-7.227,0.082-12.653c0.039-10.993,0.095-26.646,0.162-45.44l0.001-0.317L460.512,215.154z"/>
					</g>
					<g>
						<path style="fill:#263238;" d="M456.809,295.696c0,0.144-13.02,0.26-29.078,0.26c-16.063,0-29.081-0.116-29.081-0.26
							c0-0.144,13.018-0.26,29.081-0.26C443.788,295.435,456.809,295.552,456.809,295.696z"/>
					</g>
					<g>
						<path style="fill:#263238;" d="M468.456,304.375c0,0.144-17.764,0.261-39.671,0.261c-21.915,0-39.675-0.117-39.675-0.261
							c0-0.144,17.76-0.26,39.675-0.26C450.692,304.115,468.456,304.231,468.456,304.375z"/>
					</g>
					<g>
						<path style="fill:#263238;" d="M468.456,312.776c0,0.144-17.764,0.26-39.671,0.26c-21.915,0-39.675-0.116-39.675-0.26
							c0-0.144,17.76-0.26,39.675-0.26C450.692,312.515,468.456,312.632,468.456,312.776z"/>
					</g>
					<g>
						<path style="fill:#263238;" d="M468.456,321.177c0,0.144-17.764,0.26-39.671,0.26c-21.915,0-39.675-0.116-39.675-0.26
							c0-0.144,17.76-0.26,39.675-0.26C450.692,320.917,468.456,321.033,468.456,321.177z"/>
					</g>
					<g>
						<path style="fill:#263238;" d="M421.855,329.578c0,0.144-7.331,0.26-16.372,0.26c-9.044,0-16.374-0.117-16.374-0.26
							s7.329-0.26,16.374-0.26C414.524,329.317,421.855,329.434,421.855,329.578z"/>
					</g>
				</g>
				<g>
					<g>
						<g>
							<g>
								<g>
									<g>
										<rect x="499.651" y="209.267" style="fill:#FF725E;" width="77.442" height="74.924"/>
									</g>
								</g>
							</g>
						</g>
						<g style="opacity:0.3;">
							<g>
								<g>
									<g>
										<polygon points="505.655,277.778 527.078,239.223 544.6,263.866 555.248,250.779 571.088,277.778 										"/>
									</g>
								</g>
							</g>
						</g>
						<g style="opacity:0.3;">
							<g>
								<g>
									<g>
										<path d="M552.065,231.724c0,3.078-2.495,5.573-5.573,5.573s-5.573-2.495-5.573-5.573c0-3.078,2.495-5.573,5.573-5.573
											S552.065,228.646,552.065,231.724z"/>
									</g>
								</g>
							</g>
						</g>
						<path style="opacity:0.3;" d="M571.088,215.154c-18.951-0.015-41.415-0.033-65.427-0.052c0.072-0.082-0.705,0.703-0.376,0.38
							v0.017v0.033v0.067v0.134V216v0.534l0.001,1.067v2.128c0,1.416,0,2.826,0.001,4.23c0,2.807,0.001,5.589,0.002,8.342
							c0.003,5.506,0.006,10.897,0.009,16.145c0.012,10.493,0.024,20.414,0.035,29.539v0.323l0.321-0.001
							c19.615-0.067,35.998-0.123,47.516-0.163c5.687-0.036,10.171-0.065,13.271-0.084c1.496-0.016,2.657-0.029,3.477-0.037
							c0.369-0.008,0.656-0.014,0.883-0.018c0.196-0.006,0.293-0.012,0.286-0.018c-0.006-0.006-0.114-0.012-0.322-0.018
							c-0.234-0.005-0.534-0.01-0.917-0.018c-0.836-0.009-2.017-0.022-3.54-0.038c-3.116-0.02-7.626-0.048-13.344-0.084
							c-11.405-0.039-27.602-0.095-46.988-0.163c0.011-9.038,0.023-18.848,0.035-29.219c0.003-5.248,0.006-10.639,0.009-16.145
							c0.001-2.753,0.002-5.535,0.002-8.342c0-1.404,0.001-2.814,0.001-4.23v-2.128v-1.067V216v-0.16
							c23.743-0.019,45.96-0.037,64.749-0.052c0.067,18.57,0.122,34.041,0.161,44.922c0.035,5.456,0.063,9.753,0.082,12.724
							c0.016,1.449,0.028,2.574,0.037,3.372c0.007,0.363,0.014,0.649,0.017,0.873c0.006,0.198,0.012,0.301,0.018,0.307
							c0.007,0.006,0.012-0.086,0.018-0.272c0.005-0.216,0.01-0.49,0.018-0.84c0.008-0.783,0.02-1.887,0.036-3.311
							c0.019-2.954,0.047-7.227,0.082-12.653c0.039-10.993,0.095-26.646,0.162-45.44l0.001-0.317L571.088,215.154z"/>
					</g>
					<g>
						<path style="fill:#263238;" d="M567.385,295.696c0,0.144-13.02,0.26-29.078,0.26c-16.063,0-29.081-0.116-29.081-0.26
							c0-0.144,13.018-0.26,29.081-0.26C554.365,295.435,567.385,295.552,567.385,295.696z"/>
					</g>
					<g>
						<path style="fill:#263238;" d="M579.032,304.375c0,0.144-17.764,0.261-39.671,0.261c-21.915,0-39.675-0.117-39.675-0.261
							c0-0.144,17.76-0.26,39.675-0.26C561.268,304.115,579.032,304.231,579.032,304.375z"/>
					</g>
					<g>
						<path style="fill:#263238;" d="M579.032,312.776c0,0.144-17.764,0.26-39.671,0.26c-21.915,0-39.675-0.116-39.675-0.26
							c0-0.144,17.76-0.26,39.675-0.26C561.268,312.515,579.032,312.632,579.032,312.776z"/>
					</g>
					<g>
						<path style="fill:#263238;" d="M579.032,321.177c0,0.144-17.764,0.26-39.671,0.26c-21.915,0-39.675-0.116-39.675-0.26
							c0-0.144,17.76-0.26,39.675-0.26C561.268,320.917,579.032,321.033,579.032,321.177z"/>
					</g>
					<g>
						<path style="fill:#263238;" d="M532.431,329.578c0,0.144-7.331,0.26-16.372,0.26c-9.044,0-16.374-0.117-16.374-0.26
							s7.329-0.26,16.374-0.26C525.1,329.317,532.431,329.434,532.431,329.578z"/>
					</g>
				</g>
				<g>
					<path style="fill:#E0E0E0;" d="M609.62,186.701c0,0.144-81.447,0.26-181.893,0.26c-100.481,0-181.91-0.117-181.91-0.26
						s81.429-0.26,181.91-0.26C528.173,186.44,609.62,186.557,609.62,186.701z"/>
				</g>
			</g>
			<g>
				<path style="fill:#263238;" d="M245.513,134.426c2.182-0.001,150.477-0.1,364.107-0.241l0.241,0v0.242
					c0.006,67.615,0.012,141.912,0.019,219.764v0.028v0.261l-0.26,0c-138.5-0.022-265.722-0.042-364.107-0.057h-0.203l0-0.203
					C245.434,219.567,245.511,136.066,245.513,134.426c0.001,1.64,0.079,85.141,0.203,219.792l-0.203-0.203
					c98.385-0.016,225.607-0.036,364.107-0.057l-0.26,0.26v-0.028c0.007-77.852,0.013-152.149,0.019-219.764l0.241,0.241
					C395.99,134.525,247.693,134.427,245.513,134.426z"/>
			</g>
		</g>
	</g>
</g>
<g id="Documents">
	<g>
		<g>
			<g>
				<g>
					<g>
						<path style="fill:#FF725E;" d="M87.073,246.96h-46.28c-3.198,0-5.791-2.593-5.791-5.791v-64.058
							c0-3.198,2.593-5.791,5.791-5.791h29.351l22.72,23.417v46.431C92.864,244.368,90.271,246.96,87.073,246.96z"/>
					</g>
				</g>
				<g style="opacity:0.2;">
					<g>
						<path d="M83.844,246.96h-39.69c-5.055,0-9.153-4.098-9.153-9.153V224.01h57.862v13.931
							C92.864,242.922,88.826,246.96,83.844,246.96z"/>
					</g>
				</g>
				<g style="opacity:0.2;">
					<g>
						<path style="fill:#FFFFFF;" d="M70.144,171.321v18.028c0,2.974,2.411,5.386,5.385,5.386l17.335,0.003L70.144,171.321z"/>
					</g>
				</g>
				<g style="opacity:0.2;">
					<g>
						<path d="M70.38,190.931c0,0-0.228,4.372,4.75,5.81c0.187,0.054,0.378,0.094,0.57,0.128c2.263,0.405,17.164,3.055,17.164,2.713
							c0-0.37,0-4.845,0-4.845H75.529C75.529,194.738,71.201,194.59,70.38,190.931z"/>
					</g>
				</g>
			</g>
			<g>
				<g>
					<path style="fill:#FAFAFA;" d="M51.565,234.01c0-2.713,2.083-4.654,4.885-4.654c1.556,0,2.854,0.565,3.703,1.594l-1.337,1.234
						c-0.604-0.694-1.362-1.055-2.262-1.055c-1.684,0-2.88,1.183-2.88,2.88c0,1.697,1.196,2.88,2.88,2.88
						c0.9,0,1.658-0.36,2.262-1.068l1.337,1.234c-0.848,1.042-2.147,1.607-3.715,1.607C53.649,238.663,51.565,236.723,51.565,234.01
						z"/>
				</g>
				<g>
					<path style="fill:#FAFAFA;" d="M60.765,237.622l0.707-1.569c0.759,0.552,1.889,0.938,2.97,0.938
						c1.234,0,1.735-0.411,1.735-0.964c0-1.684-5.232-0.527-5.232-3.869c0-1.53,1.234-2.803,3.792-2.803
						c1.132,0,2.288,0.269,3.123,0.797l-0.642,1.581c-0.836-0.476-1.697-0.707-2.494-0.707c-1.234,0-1.71,0.463-1.71,1.028
						c0,1.658,5.232,0.515,5.232,3.819c0,1.503-1.247,2.789-3.818,2.789C63.003,238.663,61.563,238.239,60.765,237.622z"/>
				</g>
				<g>
					<path style="fill:#FAFAFA;" d="M68.964,237.622l0.706-1.569c0.759,0.552,1.89,0.938,2.97,0.938
						c1.234,0,1.735-0.411,1.735-0.964c0-1.684-5.233-0.527-5.233-3.869c0-1.53,1.234-2.803,3.792-2.803
						c1.132,0,2.289,0.269,3.124,0.797l-0.643,1.581c-0.836-0.476-1.697-0.707-2.494-0.707c-1.234,0-1.71,0.463-1.71,1.028
						c0,1.658,5.233,0.515,5.233,3.819c0,1.503-1.247,2.789-3.818,2.789C71.201,238.663,69.761,238.239,68.964,237.622z"/>
				</g>
			</g>
			<g>
				<g>
					<path style="fill:#FAFAFA;" d="M54.505,204.886c0.951,0.29,1.385,0.889,1.385,2.315v3.308c0,0.971,0.497,1.53,1.509,1.53h0.372
						v2.521h-1.198c-2.585,0-3.908-1.323-3.908-3.701v-3.741c0-0.662-0.351-0.972-0.909-0.972h-0.683v-2.521h0.683
						c0.558,0,0.909-0.311,0.909-0.972v-3.742c0-2.377,1.323-3.7,3.908-3.7h1.198v2.522h-0.372c-1.013,0-1.509,0.558-1.509,1.53
						v3.308C55.89,203.997,55.456,204.596,54.505,204.886z"/>
				</g>
				<g>
					<path style="fill:#FAFAFA;" d="M76.792,203.625v2.521H76.11c-0.558,0-0.909,0.311-0.909,0.972v3.741
						c0,2.378-1.323,3.701-3.908,3.701h-1.198v-2.521h0.372c1.012,0,1.509-0.559,1.509-1.53v-3.308c0-1.427,0.434-2.026,1.385-2.315
						c-0.951-0.29-1.385-0.889-1.385-2.315v-3.308c0-0.972-0.497-1.53-1.509-1.53h-0.372v-2.522h1.198
						c2.585,0,3.908,1.323,3.908,3.7v3.742c0,0.662,0.351,0.972,0.909,0.972H76.792z"/>
				</g>
			</g>
		</g>
		<g>
			<g>
				<path style="fill:#263238;" d="M123.231,261.794c0,0.021-0.344,0.042-0.995,0.062c-0.706,0.014-1.651,0.033-2.83,0.057
					c-2.508,0.022-6.01,0.053-10.247,0.09l-0.209,0.002l-0.001-0.212c-0.014-5.673-0.032-12.728-0.051-20.364
					c0.007-4.754,0.014-9.28,0.02-13.407c0.008-2.057,0.017-4.015,0.024-5.85c0.061-0.888-0.276-1.691-0.881-2.216
					c-0.606-0.548-1.368-0.691-2.147-0.652c-3.071-0.034-5.577-0.063-7.38-0.083c-0.829-0.02-1.495-0.036-2.006-0.049
					c-0.459-0.017-0.7-0.035-0.7-0.053c0-0.018,0.241-0.036,0.7-0.052c0.511-0.012,1.177-0.029,2.006-0.049
					c1.803-0.02,4.309-0.048,7.38-0.083c0.76-0.058,1.732,0.094,2.411,0.717c0.705,0.577,1.112,1.57,1.049,2.52
					c0.007,1.835,0.016,3.793,0.024,5.85c0.006,4.127,0.013,8.653,0.02,13.407c-0.019,7.636-0.037,14.691-0.051,20.364l-0.21-0.21
					c4.237,0.037,7.739,0.068,10.247,0.09c1.18,0.024,2.124,0.043,2.83,0.057C122.887,261.751,123.231,261.772,123.231,261.794z"/>
			</g>
			<g>
				<path style="fill:#263238;" d="M95.062,303.84c0-0.018,0.193-0.036,0.559-0.053c0.425-0.013,0.955-0.029,1.604-0.049
					c1.466-0.021,3.463-0.049,5.898-0.083c1.238-0.077,2.671,0.212,3.878-0.517c1.227-0.678,2.044-2.129,1.894-3.743
					c-0.006-3.3-0.013-6.914-0.021-10.71c0.03-7.567,0.057-14.414,0.076-19.46c0.034-2.435,0.062-4.432,0.083-5.897
					c0.02-0.649,0.036-1.179,0.049-1.603c0.017-0.367,0.035-0.559,0.052-0.559c0.018,0,0.035,0.192,0.052,0.559
					c0.013,0.424,0.029,0.955,0.049,1.603c0.021,1.466,0.049,3.462,0.083,5.897c0.02,5.046,0.047,11.893,0.076,19.46
					c-0.007,3.796-0.014,7.41-0.02,10.71c-0.003,0.401,0.005,0.841-0.082,1.258c-0.087,0.415-0.225,0.815-0.42,1.179
					c-0.394,0.727-0.985,1.307-1.66,1.682c-0.674,0.373-1.432,0.543-2.136,0.525c-0.678-0.006-1.33-0.012-1.954-0.017
					c-2.435-0.034-4.432-0.062-5.898-0.083c-0.649-0.02-1.179-0.036-1.604-0.049C95.255,303.876,95.062,303.858,95.062,303.84z"/>
			</g>
			<path style="fill:#263238;" d="M127.311,261.794c0,1.112-0.901,2.013-2.013,2.013c-1.112,0-2.013-0.901-2.013-2.013
				c0-1.112,0.901-2.013,2.013-2.013C126.41,259.781,127.311,260.682,127.311,261.794z"/>
		</g>
		<g>
			<g>
				<g>
					<g>
						<path style="fill:#FF725E;" d="M86.917,340.468H42.095c-3.097,0-5.608-2.511-5.608-5.608V272.82
							c0-3.097,2.511-5.608,5.608-5.608h28.426l22.004,22.679v44.968C92.526,337.957,90.015,340.468,86.917,340.468z"/>
					</g>
				</g>
				<g style="opacity:0.2;">
					<g>
						<path d="M84.312,340.468H44.576c-4.467,0-8.089-3.622-8.089-8.089v-14.138h56.038v14.014
							C92.526,336.791,88.848,340.468,84.312,340.468z"/>
					</g>
				</g>
				<g>
					<g>
						<path style="fill:#FAFAFA;" d="M56.347,332.578l1.41-1.692c0.595,0.799,1.253,1.206,2.037,1.206
							c1.018,0,1.551-0.611,1.551-1.817v-5.217h-3.854v-2.037h6.377v7.113c0,2.711-1.363,4.042-3.948,4.042
							C58.447,334.177,57.146,333.613,56.347,332.578z"/>
					</g>
					<g>
						<path style="fill:#FAFAFA;" d="M65.384,333.205l0.815-1.755c0.752,0.486,1.895,0.815,2.93,0.815
							c1.128,0,1.551-0.298,1.551-0.768c0-1.379-5.092,0.031-5.092-3.337c0-1.598,1.441-2.726,3.901-2.726
							c1.159,0,2.444,0.267,3.243,0.737l-0.815,1.739c-0.831-0.47-1.661-0.627-2.429-0.627c-1.097,0-1.567,0.345-1.567,0.784
							c0,1.441,5.092,0.047,5.092,3.368c0,1.567-1.457,2.679-3.979,2.679C67.609,334.114,66.168,333.722,65.384,333.205z"/>
					</g>
				</g>
				<g>
					<g>
						<path style="fill:#FAFAFA;" d="M48.36,306.574l1.757-2.06c1.151,1.636,2.635,2.514,4.423,2.514
							c2.393,0,3.636-1.454,3.636-4.302V290.82h-7.665v-2.636h10.664v14.391c0,4.726-2.302,7.059-6.634,7.059
							C52.026,309.634,49.723,308.543,48.36,306.574z"/>
					</g>
					<g>
						<path style="fill:#FAFAFA;" d="M64.905,307.695l1.212-2.302c1.363,0.969,3.545,1.666,5.635,1.666
							c2.696,0,3.817-0.818,3.817-2.181c0-3.605-10.149-0.484-10.149-6.877c0-2.878,2.575-4.817,6.695-4.817
							c2.09,0,4.453,0.545,5.847,1.454l-1.242,2.302c-1.454-0.939-3.06-1.272-4.635-1.272c-2.545,0-3.787,0.939-3.787,2.211
							c0,3.787,10.179,0.697,10.179,6.938c0,2.908-2.666,4.756-6.938,4.756C68.873,309.573,66.237,308.755,64.905,307.695z"/>
					</g>
				</g>
				<g style="opacity:0.3;">
					<g>
						<path style="fill:#FFFFFF;" d="M70.521,267.212v17.46c0,2.881,2.335,5.216,5.215,5.216l16.789,0.003L70.521,267.212z"/>
					</g>
				</g>
				<g style="opacity:0.2;">
					<g>
						<path d="M70.751,286.205c0,0-0.221,4.235,4.6,5.627c0.181,0.052,0.367,0.091,0.552,0.124
							c2.192,0.392,16.623,2.959,16.623,2.627c0-0.359,0-4.692,0-4.692H75.737C75.737,289.892,71.545,289.748,70.751,286.205z"/>
					</g>
				</g>
			</g>
		</g>
	</g>
</g>
</svg>
